<svg xmlns="http://www.w3.org/2000/svg" xmlns:xlink="http://www.w3.org/1999/xlink" width="854" height="480" viewBox="0 0 854 480"><defs><g><g id="glyph-0-0"><path d="M 0.515625 0 L 0.515625 -0.65625 L 1.5625 -0.65625 L 1.5625 -7.4375 L 0.515625 -7.4375 L 0.515625 -8.09375 L 5.125 -8.09375 C 6.03125 -8.09375 6.75 -7.878906 7.28125 -7.453125 C 7.8125 -7.023438 8.078125 -6.453125 8.078125 -5.734375 C 8.078125 -5.015625 7.8125 -4.4375 7.28125 -4 C 6.75 -3.570312 6.03125 -3.359375 5.125 -3.359375 L 3.640625 -3.359375 L 3.640625 -0.65625 L 4.953125 -0.65625 L 4.953125 0 Z M 3.640625 -4.015625 L 4.25 -4.015625 C 4.71875 -4.015625 5.09375 -4.171875 5.375 -4.484375 C 5.65625 -4.796875 5.796875 -5.210938 5.796875 -5.734375 C 5.796875 -6.253906 5.65625 -6.664062 5.375 -6.96875 C 5.101562 -7.28125 4.726562 -7.4375 4.25 -7.4375 L 3.640625 -7.4375 Z"/></g><g id="glyph-0-1"><path d="M 5.96875 -5.828125 L 5.96875 -4.109375 L 5.359375 -4.109375 C 5.335938 -4.421875 5.253906 -4.648438 5.109375 -4.796875 C 4.960938 -4.941406 4.75 -5.015625 4.46875 -5.015625 C 4.050781 -5.015625 3.722656 -4.832031 3.484375 -4.46875 C 3.242188 -4.101562 3.125 -3.59375 3.125 -2.9375 L 3.125 -0.65625 L 4.171875 -0.65625 L 4.171875 0 L 0.375 0 L 0.375 -0.65625 L 1.203125 -0.65625 L 1.203125 -5.109375 L 0.3125 -5.109375 L 0.3125 -5.765625 L 3.125 -5.765625 L 3.125 -4.734375 C 3.3125 -5.140625 3.554688 -5.4375 3.859375 -5.625 C 4.171875 -5.820312 4.550781 -5.921875 5 -5.921875 C 5.113281 -5.921875 5.25 -5.910156 5.40625 -5.890625 C 5.570312 -5.878906 5.757812 -5.859375 5.96875 -5.828125 Z"/></g><g id="glyph-0-2"><path d="M 3.703125 -0.453125 C 4.109375 -0.453125 4.394531 -0.625 4.5625 -0.96875 C 4.726562 -1.320312 4.8125 -1.960938 4.8125 -2.890625 C 4.8125 -3.816406 4.726562 -4.453125 4.5625 -4.796875 C 4.40625 -5.140625 4.117188 -5.3125 3.703125 -5.3125 C 3.296875 -5.3125 3.007812 -5.132812 2.84375 -4.78125 C 2.675781 -4.4375 2.59375 -3.804688 2.59375 -2.890625 C 2.59375 -1.972656 2.675781 -1.335938 2.84375 -0.984375 C 3.007812 -0.628906 3.296875 -0.453125 3.703125 -0.453125 Z M 3.703125 0.15625 C 2.691406 0.15625 1.894531 -0.113281 1.3125 -0.65625 C 0.738281 -1.195312 0.453125 -1.941406 0.453125 -2.890625 C 0.453125 -3.835938 0.738281 -4.578125 1.3125 -5.109375 C 1.894531 -5.648438 2.691406 -5.921875 3.703125 -5.921875 C 4.722656 -5.921875 5.519531 -5.648438 6.09375 -5.109375 C 6.675781 -4.578125 6.96875 -3.835938 6.96875 -2.890625 C 6.96875 -1.941406 6.675781 -1.195312 6.09375 -0.65625 C 5.519531 -0.113281 4.722656 0.15625 3.703125 0.15625 Z"/></g><g id="glyph-0-3"><path d="M 5.375 -7 L 4.765625 -7 C 4.734375 -7.28125 4.648438 -7.488281 4.515625 -7.625 C 4.378906 -7.757812 4.1875 -7.828125 3.9375 -7.828125 C 3.65625 -7.828125 3.445312 -7.722656 3.3125 -7.515625 C 3.1875 -7.304688 3.125 -6.972656 3.125 -6.515625 L 3.125 -5.765625 L 4.5625 -5.765625 L 4.5625 -5.109375 L 3.125 -5.109375 L 3.125 -0.65625 L 4.234375 -0.65625 L 4.234375 0 L 0.375 0 L 0.375 -0.65625 L 1.203125 -0.65625 L 1.203125 -5.109375 L 0.34375 -5.109375 L 0.34375 -5.765625 L 1.203125 -5.765625 L 1.203125 -6.484375 C 1.203125 -7.128906 1.40625 -7.613281 1.8125 -7.9375 C 2.21875 -8.269531 2.816406 -8.4375 3.609375 -8.4375 C 3.921875 -8.4375 4.222656 -8.421875 4.515625 -8.390625 C 4.804688 -8.359375 5.09375 -8.304688 5.375 -8.234375 Z"/></g><g id="glyph-0-5"><path d="M 1.078125 -0.65625 L 1.078125 -7.796875 L 0.25 -7.796875 L 0.25 -8.4375 L 3 -8.4375 L 3 -5.03125 C 3.164062 -5.332031 3.382812 -5.554688 3.65625 -5.703125 C 3.925781 -5.847656 4.265625 -5.921875 4.671875 -5.921875 C 5.492188 -5.921875 6.140625 -5.648438 6.609375 -5.109375 C 7.085938 -4.566406 7.328125 -3.828125 7.328125 -2.890625 C 7.328125 -1.941406 7.085938 -1.195312 6.609375 -0.65625 C 6.140625 -0.113281 5.492188 0.15625 4.671875 0.15625 C 4.265625 0.15625 3.925781 0.0820312 3.65625 -0.0625 C 3.382812 -0.207031 3.164062 -0.429688 3 -0.734375 L 3 0 L 0.25 0 L 0.25 -0.65625 Z M 3 -2.59375 C 3 -1.925781 3.082031 -1.441406 3.25 -1.140625 C 3.425781 -0.835938 3.707031 -0.6875 4.09375 -0.6875 C 4.488281 -0.6875 4.765625 -0.84375 4.921875 -1.15625 C 5.085938 -1.476562 5.171875 -2.054688 5.171875 -2.890625 C 5.171875 -3.710938 5.085938 -4.28125 4.921875 -4.59375 C 4.765625 -4.914062 4.488281 -5.078125 4.09375 -5.078125 C 3.707031 -5.078125 3.425781 -4.925781 3.25 -4.625 C 3.082031 -4.320312 3 -3.835938 3 -3.171875 Z"/></g><g id="glyph-0-6"><path d="M 3.46875 1.296875 C 3.289062 1.722656 3.078125 2.023438 2.828125 2.203125 C 2.585938 2.378906 2.257812 2.46875 1.84375 2.46875 C 1.664062 2.46875 1.46875 2.445312 1.25 2.40625 C 1.03125 2.363281 0.796875 2.304688 0.546875 2.234375 L 0.546875 1.03125 L 1.15625 1.03125 C 1.164062 1.3125 1.226562 1.519531 1.34375 1.65625 C 1.46875 1.789062 1.65625 1.859375 1.90625 1.859375 C 2.132812 1.859375 2.320312 1.789062 2.46875 1.65625 C 2.613281 1.53125 2.757812 1.289062 2.90625 0.9375 L 2.984375 0.734375 L 0.484375 -5.109375 L -0.140625 -5.109375 L -0.140625 -5.765625 L 3.171875 -5.765625 L 3.171875 -5.109375 L 2.484375 -5.109375 L 3.953125 -1.703125 L 5.328125 -5.109375 L 4.5625 -5.109375 L 4.5625 -5.765625 L 6.71875 -5.765625 L 6.71875 -5.109375 L 6.015625 -5.109375 Z"/></g><g id="glyph-0-7"><path d="M 0.859375 -0.390625 L 0.859375 -2.3125 L 1.546875 -2.3125 C 1.648438 -1.707031 1.894531 -1.253906 2.28125 -0.953125 C 2.675781 -0.648438 3.21875 -0.5 3.90625 -0.5 C 4.46875 -0.5 4.894531 -0.601562 5.1875 -0.8125 C 5.476562 -1.03125 5.625 -1.34375 5.625 -1.75 C 5.625 -2.082031 5.523438 -2.335938 5.328125 -2.515625 C 5.128906 -2.691406 4.71875 -2.859375 4.09375 -3.015625 L 2.890625 -3.3125 C 2.097656 -3.519531 1.539062 -3.800781 1.21875 -4.15625 C 0.894531 -4.519531 0.734375 -5.035156 0.734375 -5.703125 C 0.734375 -6.503906 1 -7.128906 1.53125 -7.578125 C 2.0625 -8.023438 2.8125 -8.25 3.78125 -8.25 C 4.25 -8.25 4.738281 -8.207031 5.25 -8.125 C 5.757812 -8.039062 6.289062 -7.921875 6.84375 -7.765625 L 6.84375 -5.984375 L 6.15625 -5.984375 C 6.050781 -6.535156 5.820312 -6.941406 5.46875 -7.203125 C 5.113281 -7.460938 4.609375 -7.59375 3.953125 -7.59375 C 3.421875 -7.59375 3.015625 -7.5 2.734375 -7.3125 C 2.460938 -7.125 2.328125 -6.847656 2.328125 -6.484375 C 2.328125 -6.140625 2.421875 -5.878906 2.609375 -5.703125 C 2.796875 -5.535156 3.257812 -5.359375 4 -5.171875 L 5.21875 -4.859375 C 5.96875 -4.671875 6.507812 -4.378906 6.84375 -3.984375 C 7.1875 -3.585938 7.359375 -3.039062 7.359375 -2.34375 C 7.359375 -1.53125 7.070312 -0.910156 6.5 -0.484375 C 5.9375 -0.0546875 5.109375 0.15625 4.015625 0.15625 C 3.492188 0.15625 2.972656 0.109375 2.453125 0.015625 C 1.929688 -0.0664062 1.398438 -0.203125 0.859375 -0.390625 Z"/></g><g id="glyph-0-8"><path d="M 1.09375 -5.109375 L 0.265625 -5.109375 L 0.265625 -5.765625 L 1.09375 -5.765625 L 1.09375 -7.5625 L 3.015625 -7.5625 L 3.015625 -5.765625 L 4.625 -5.765625 L 4.625 -5.109375 L 3.015625 -5.109375 L 3.015625 -1.578125 C 3.015625 -1.078125 3.054688 -0.765625 3.140625 -0.640625 C 3.222656 -0.515625 3.367188 -0.453125 3.578125 -0.453125 C 3.804688 -0.453125 3.976562 -0.53125 4.09375 -0.6875 C 4.207031 -0.84375 4.265625 -1.082031 4.265625 -1.40625 L 5.078125 -1.40625 C 5.046875 -0.832031 4.882812 -0.425781 4.59375 -0.1875 C 4.3125 0.0390625 3.828125 0.15625 3.140625 0.15625 C 2.347656 0.15625 1.804688 0.0351562 1.515625 -0.203125 C 1.234375 -0.453125 1.09375 -0.910156 1.09375 -1.578125 Z"/></g><g id="glyph-0-9"><path d="M 0.375 0 L 0.375 -0.65625 L 1.203125 -0.65625 L 1.203125 -5.109375 L 0.375 -5.109375 L 0.375 -5.765625 L 3.125 -5.765625 L 3.125 -4.953125 C 3.351562 -5.296875 3.613281 -5.539062 3.90625 -5.6875 C 4.207031 -5.84375 4.582031 -5.921875 5.03125 -5.921875 C 5.675781 -5.921875 6.164062 -5.726562 6.5 -5.34375 C 6.832031 -4.96875 7 -4.410156 7 -3.671875 L 7 -0.65625 L 7.828125 -0.65625 L 7.828125 0 L 4.375 0 L 4.375 -0.65625 L 5.078125 -0.65625 L 5.078125 -3.71875 C 5.078125 -4.207031 5.015625 -4.546875 4.890625 -4.734375 C 4.765625 -4.921875 4.546875 -5.015625 4.234375 -5.015625 C 3.847656 -5.015625 3.566406 -4.875 3.390625 -4.59375 C 3.210938 -4.3125 3.125 -3.863281 3.125 -3.25 L 3.125 -0.65625 L 3.828125 -0.65625 L 3.828125 0 Z"/></g><g id="glyph-0-10"><path d="M 6.6875 -5.109375 L 6.6875 -0.078125 C 6.6875 0.734375 6.394531 1.359375 5.8125 1.796875 C 5.238281 2.242188 4.425781 2.46875 3.375 2.46875 C 2.988281 2.46875 2.597656 2.4375 2.203125 2.375 C 1.816406 2.320312 1.414062 2.234375 1 2.109375 L 1 0.734375 L 1.609375 0.734375 C 1.660156 1.109375 1.8125 1.390625 2.0625 1.578125 C 2.320312 1.765625 2.679688 1.859375 3.140625 1.859375 C 3.734375 1.859375 4.148438 1.710938 4.390625 1.421875 C 4.640625 1.140625 4.765625 0.640625 4.765625 -0.078125 L 4.765625 -0.734375 C 4.609375 -0.429688 4.390625 -0.207031 4.109375 -0.0625 C 3.828125 0.0820312 3.488281 0.15625 3.09375 0.15625 C 2.269531 0.15625 1.625 -0.113281 1.15625 -0.65625 C 0.6875 -1.195312 0.453125 -1.941406 0.453125 -2.890625 C 0.453125 -3.835938 0.6875 -4.578125 1.15625 -5.109375 C 1.625 -5.648438 2.269531 -5.921875 3.09375 -5.921875 C 3.488281 -5.921875 3.828125 -5.847656 4.109375 -5.703125 C 4.390625 -5.554688 4.609375 -5.332031 4.765625 -5.03125 L 4.765625 -5.765625 L 7.5 -5.765625 L 7.5 -5.109375 Z M 4.765625 -3.171875 C 4.765625 -3.835938 4.675781 -4.320312 4.5 -4.625 C 4.332031 -4.925781 4.054688 -5.078125 3.671875 -5.078125 C 3.273438 -5.078125 2.992188 -4.914062 2.828125 -4.59375 C 2.671875 -4.28125 2.59375 -3.710938 2.59375 -2.890625 C 2.59375 -2.054688 2.675781 -1.476562 2.84375 -1.15625 C 3.007812 -0.84375 3.285156 -0.6875 3.671875 -0.6875 C 4.054688 -0.6875 4.332031 -0.835938 4.5 -1.140625 C 4.675781 -1.441406 4.765625 -1.925781 4.765625 -2.59375 Z"/></g><g id="glyph-0-11"><path d="M 0.515625 0 L 0.515625 -0.65625 L 1.5625 -0.65625 L 1.5625 -7.4375 L 0.515625 -7.4375 L 0.515625 -8.09375 L 4.6875 -8.09375 L 4.6875 -7.4375 L 3.640625 -7.4375 L 3.640625 -0.65625 L 4.6875 -0.65625 L 4.6875 0 Z"/></g><g id="glyph-0-12"><path d="M 4.765625 -2.59375 L 4.765625 -3.171875 C 4.765625 -3.835938 4.675781 -4.320312 4.5 -4.625 C 4.332031 -4.925781 4.054688 -5.078125 3.671875 -5.078125 C 3.273438 -5.078125 2.992188 -4.914062 2.828125 -4.59375 C 2.671875 -4.28125 2.59375 -3.710938 2.59375 -2.890625 C 2.59375 -2.054688 2.675781 -1.476562 2.84375 -1.15625 C 3.007812 -0.84375 3.285156 -0.6875 3.671875 -0.6875 C 4.054688 -0.6875 4.332031 -0.835938 4.5 -1.140625 C 4.675781 -1.441406 4.765625 -1.925781 4.765625 -2.59375 Z M 6.6875 -0.65625 L 7.5 -0.65625 L 7.5 0 L 4.765625 0 L 4.765625 -0.734375 C 4.609375 -0.429688 4.390625 -0.207031 4.109375 -0.0625 C 3.828125 0.0820312 3.488281 0.15625 3.09375 0.15625 C 2.269531 0.15625 1.625 -0.113281 1.15625 -0.65625 C 0.6875 -1.195312 0.453125 -1.941406 0.453125 -2.890625 C 0.453125 -3.835938 0.6875 -4.578125 1.15625 -5.109375 C 1.625 -5.648438 2.269531 -5.921875 3.09375 -5.921875 C 3.488281 -5.921875 3.828125 -5.847656 4.109375 -5.703125 C 4.390625 -5.554688 4.609375 -5.332031 4.765625 -5.03125 L 4.765625 -7.796875 L 3.9375 -7.796875 L 3.9375 -8.4375 L 6.6875 -8.4375 Z"/></g><g id="glyph-0-13"><path d="M 6.875 -5.765625 L 6.875 -0.65625 L 7.703125 -0.65625 L 7.703125 0 L 4.953125 0 L 4.953125 -0.8125 C 4.722656 -0.46875 4.457031 -0.21875 4.15625 -0.0625 C 3.863281 0.0820312 3.492188 0.15625 3.046875 0.15625 C 2.398438 0.15625 1.910156 -0.03125 1.578125 -0.40625 C 1.242188 -0.789062 1.078125 -1.351562 1.078125 -2.09375 L 1.078125 -5.109375 L 0.25 -5.109375 L 0.25 -5.765625 L 3 -5.765625 L 3 -2.390625 C 3 -1.679688 3.054688 -1.226562 3.171875 -1.03125 C 3.296875 -0.84375 3.515625 -0.75 3.828125 -0.75 C 4.222656 -0.75 4.507812 -0.890625 4.6875 -1.171875 C 4.863281 -1.453125 4.953125 -1.90625 4.953125 -2.53125 L 4.953125 -5.109375 L 4.25 -5.109375 L 4.25 -5.765625 Z"/></g><g id="glyph-0-14"><path d="M 6.265625 -1.796875 C 6.128906 -1.140625 5.847656 -0.648438 5.421875 -0.328125 C 4.992188 -0.00390625 4.414062 0.15625 3.6875 0.15625 C 2.65625 0.15625 1.859375 -0.109375 1.296875 -0.640625 C 0.734375 -1.171875 0.453125 -1.921875 0.453125 -2.890625 C 0.453125 -3.835938 0.726562 -4.578125 1.28125 -5.109375 C 1.84375 -5.648438 2.617188 -5.921875 3.609375 -5.921875 C 4.015625 -5.921875 4.421875 -5.882812 4.828125 -5.8125 C 5.234375 -5.738281 5.648438 -5.625 6.078125 -5.46875 L 6.078125 -3.875 L 5.46875 -3.875 C 5.40625 -4.351562 5.257812 -4.710938 5.03125 -4.953125 C 4.8125 -5.191406 4.492188 -5.3125 4.078125 -5.3125 C 3.546875 -5.3125 3.164062 -5.128906 2.9375 -4.765625 C 2.707031 -4.398438 2.59375 -3.773438 2.59375 -2.890625 C 2.59375 -2.015625 2.703125 -1.390625 2.921875 -1.015625 C 3.148438 -0.640625 3.515625 -0.453125 4.015625 -0.453125 C 4.398438 -0.453125 4.707031 -0.566406 4.9375 -0.796875 C 5.164062 -1.035156 5.304688 -1.367188 5.359375 -1.796875 Z"/></g><g id="glyph-0-15"><path d="M 1.015625 -7.40625 C 1.015625 -7.695312 1.113281 -7.941406 1.3125 -8.140625 C 1.519531 -8.335938 1.769531 -8.4375 2.0625 -8.4375 C 2.351562 -8.4375 2.597656 -8.335938 2.796875 -8.140625 C 2.992188 -7.941406 3.09375 -7.695312 3.09375 -7.40625 C 3.09375 -7.113281 2.992188 -6.867188 2.796875 -6.671875 C 2.597656 -6.472656 2.351562 -6.375 2.0625 -6.375 C 1.769531 -6.375 1.519531 -6.472656 1.3125 -6.671875 C 1.113281 -6.867188 1.015625 -7.113281 1.015625 -7.40625 Z M 3.125 -0.65625 L 3.9375 -0.65625 L 3.9375 0 L 0.375 0 L 0.375 -0.65625 L 1.203125 -0.65625 L 1.203125 -5.109375 L 0.375 -5.109375 L 0.375 -5.765625 L 3.125 -5.765625 Z"/></g></g></defs><g fill="#E2E8F0" fill-opacity="1"><use x="30" y="30.433" xlink:href="#glyph-0-0"/><use x="38" y="30.433" xlink:href="#glyph-0-1"/><use x="44" y="30.433" xlink:href="#glyph-0-2"/><use x="51" y="30.433" xlink:href="#glyph-0-2"/><use x="58" y="30.433" xlink:href="#glyph-0-3"/><use x="63" y="30.433" xlink:href="#glyph-0-4"/><use x="67" y="30.433" xlink:href="#glyph-0-5"/><use x="75" y="30.433" xlink:href="#glyph-0-6"/><use x="81" y="30.433" xlink:href="#glyph-0-4"/><use x="85" y="30.433" xlink:href="#glyph-0-7"/><use x="93" y="30.433" xlink:href="#glyph-0-8"/><use x="98" y="30.433" xlink:href="#glyph-0-1"/><use x="104" y="30.433" xlink:href="#glyph-0-2"/><use x="111" y="30.433" xlink:href="#glyph-0-9"/><use x="119" y="30.433" xlink:href="#glyph-0-10"/><use x="127" y="30.433" xlink:href="#glyph-0-4"/><use x="131" y="30.433" xlink:href="#glyph-0-11"/><use x="136" y="30.433" xlink:href="#glyph-0-9"/><use x="144" y="30.433" xlink:href="#glyph-0-12"/><use x="152" y="30.433" xlink:href="#glyph-0-13"/><use x="160" y="30.433" xlink:href="#glyph-0-14"/><use x="167" y="30.433" xlink:href="#glyph-0-8"/><use x="172" y="30.433" xlink:href="#glyph-0-15"/><use x="176" y="30.433" xlink:href="#glyph-0-2"/><use x="183" y="30.433" xlink:href="#glyph-0-9"/></g></svg>