<?xml version="1.0" encoding="UTF-8"?>
<svg xmlns="http://www.w3.org/2000/svg" xmlns:xlink="http://www.w3.org/1999/xlink" width="854" height="480" viewBox="0 0 854 480">
<defs>
<g>
<g id="glyph-0-0">
<path d="M 3.734375 -2.8125 C 3.910156 -2.769531 4.0625 -2.6875 4.1875 -2.5625 C 4.3125 -2.445312 4.425781 -2.285156 4.53125 -2.078125 L 5.359375 -0.40625 L 6.046875 -0.40625 L 6.046875 0 L 4.703125 0 L 3.828125 -1.8125 C 3.648438 -2.15625 3.488281 -2.378906 3.34375 -2.484375 C 3.207031 -2.585938 3.015625 -2.640625 2.765625 -2.640625 L 1.921875 -2.640625 L 1.921875 -0.40625 L 2.71875 -0.40625 L 2.71875 0 L 0.421875 0 L 0.421875 -0.40625 L 1.15625 -0.40625 L 1.15625 -5.265625 L 0.421875 -5.265625 L 0.421875 -5.671875 L 3.3125 -5.671875 C 3.863281 -5.671875 4.285156 -5.535156 4.578125 -5.265625 C 4.878906 -5.003906 5.03125 -4.632812 5.03125 -4.15625 C 5.03125 -3.769531 4.921875 -3.460938 4.703125 -3.234375 C 4.484375 -3.015625 4.160156 -2.875 3.734375 -2.8125 Z M 1.921875 -3.046875 L 3.046875 -3.046875 C 3.421875 -3.046875 3.703125 -3.132812 3.890625 -3.3125 C 4.078125 -3.5 4.171875 -3.78125 4.171875 -4.15625 C 4.171875 -4.53125 4.078125 -4.804688 3.890625 -4.984375 C 3.703125 -5.171875 3.421875 -5.265625 3.046875 -5.265625 L 1.921875 -5.265625 Z "/>
</g>
<g id="glyph-0-1">
<path d="M 4.21875 -1.953125 L 1.203125 -1.953125 L 1.203125 -1.921875 C 1.203125 -1.367188 1.300781 -0.953125 1.5 -0.671875 C 1.707031 -0.398438 2.015625 -0.265625 2.421875 -0.265625 C 2.722656 -0.265625 2.972656 -0.34375 3.171875 -0.5 C 3.367188 -0.664062 3.507812 -0.90625 3.59375 -1.21875 L 4.15625 -1.21875 C 4.039062 -0.78125 3.832031 -0.445312 3.53125 -0.21875 C 3.226562 0 2.832031 0.109375 2.34375 0.109375 C 1.757812 0.109375 1.285156 -0.0820312 0.921875 -0.46875 C 0.566406 -0.863281 0.390625 -1.378906 0.390625 -2.015625 C 0.390625 -2.660156 0.5625 -3.175781 0.90625 -3.5625 C 1.257812 -3.957031 1.722656 -4.15625 2.296875 -4.15625 C 2.910156 -4.15625 3.378906 -3.960938 3.703125 -3.578125 C 4.035156 -3.203125 4.207031 -2.660156 4.21875 -1.953125 Z M 3.390625 -2.34375 C 3.378906 -2.820312 3.28125 -3.175781 3.09375 -3.40625 C 2.90625 -3.644531 2.640625 -3.765625 2.296875 -3.765625 C 1.972656 -3.765625 1.71875 -3.644531 1.53125 -3.40625 C 1.351562 -3.164062 1.242188 -2.8125 1.203125 -2.34375 Z "/>
</g>
<g id="glyph-0-2">
<path d="M 4 -1.21875 C 3.90625 -0.78125 3.71875 -0.445312 3.4375 -0.21875 C 3.15625 0 2.789062 0.109375 2.34375 0.109375 C 1.75 0.109375 1.273438 -0.0820312 0.921875 -0.46875 C 0.566406 -0.863281 0.390625 -1.378906 0.390625 -2.015625 C 0.390625 -2.660156 0.566406 -3.175781 0.921875 -3.5625 C 1.273438 -3.957031 1.75 -4.15625 2.34375 -4.15625 C 2.59375 -4.15625 2.84375 -4.125 3.09375 -4.0625 C 3.351562 -4 3.613281 -3.90625 3.875 -3.78125 L 3.875 -2.75 L 3.46875 -2.75 C 3.40625 -3.101562 3.285156 -3.359375 3.109375 -3.515625 C 2.929688 -3.679688 2.675781 -3.765625 2.34375 -3.765625 C 1.96875 -3.765625 1.679688 -3.617188 1.484375 -3.328125 C 1.296875 -3.035156 1.203125 -2.597656 1.203125 -2.015625 C 1.203125 -1.429688 1.296875 -0.992188 1.484375 -0.703125 C 1.679688 -0.410156 1.96875 -0.265625 2.34375 -0.265625 C 2.644531 -0.265625 2.882812 -0.34375 3.0625 -0.5 C 3.25 -0.65625 3.375 -0.894531 3.4375 -1.21875 Z "/>
</g>
<g id="glyph-0-3">
<path d="M 2.75 -4.03125 L 4.0625 -4.03125 L 4.0625 -0.40625 L 4.71875 -0.40625 L 4.71875 0 L 3.359375 0 L 3.359375 -0.71875 C 3.234375 -0.445312 3.066406 -0.238281 2.859375 -0.09375 C 2.648438 0.0390625 2.410156 0.109375 2.140625 0.109375 C 1.691406 0.109375 1.363281 -0.015625 1.15625 -0.265625 C 0.945312 -0.523438 0.84375 -0.925781 0.84375 -1.46875 L 0.84375 -3.625 L 0.203125 -3.625 L 0.203125 -4.03125 L 1.546875 -4.03125 L 1.546875 -1.6875 C 1.546875 -1.195312 1.601562 -0.859375 1.71875 -0.671875 C 1.84375 -0.492188 2.054688 -0.40625 2.359375 -0.40625 C 2.691406 -0.40625 2.941406 -0.519531 3.109375 -0.75 C 3.273438 -0.988281 3.359375 -1.335938 3.359375 -1.796875 L 3.359375 -3.625 L 2.75 -3.625 Z "/>
</g>
<g id="glyph-0-4">
<path d="M 3.71875 -4.046875 L 3.71875 -3.03125 L 3.3125 -3.03125 C 3.300781 -3.226562 3.242188 -3.375 3.140625 -3.46875 C 3.046875 -3.570312 2.90625 -3.625 2.71875 -3.625 C 2.375 -3.625 2.109375 -3.503906 1.921875 -3.265625 C 1.742188 -3.035156 1.65625 -2.695312 1.65625 -2.25 L 1.65625 -0.40625 L 2.453125 -0.40625 L 2.453125 0 L 0.3125 0 L 0.3125 -0.40625 L 0.953125 -0.40625 L 0.953125 -3.640625 L 0.28125 -3.640625 L 0.28125 -4.03125 L 1.65625 -4.03125 L 1.65625 -3.328125 C 1.789062 -3.609375 1.960938 -3.816406 2.171875 -3.953125 C 2.390625 -4.085938 2.65625 -4.15625 2.96875 -4.15625 C 3.082031 -4.15625 3.203125 -4.144531 3.328125 -4.125 C 3.453125 -4.101562 3.582031 -4.078125 3.71875 -4.046875 Z "/>
</g>
<g id="glyph-0-5">
<path d="M 0.3125 0 L 0.3125 -0.40625 L 0.953125 -0.40625 L 0.953125 -3.625 L 0.28125 -3.625 L 0.28125 -4.03125 L 1.65625 -4.03125 L 1.65625 -3.328125 C 1.78125 -3.597656 1.945312 -3.800781 2.15625 -3.9375 C 2.363281 -4.082031 2.601562 -4.15625 2.875 -4.15625 C 3.320312 -4.15625 3.648438 -4.023438 3.859375 -3.765625 C 4.066406 -3.503906 4.171875 -3.101562 4.171875 -2.5625 L 4.171875 -0.40625 L 4.796875 -0.40625 L 4.796875 0 L 2.859375 0 L 2.859375 -0.40625 L 3.46875 -0.40625 L 3.46875 -2.34375 C 3.46875 -2.84375 3.40625 -3.179688 3.28125 -3.359375 C 3.164062 -3.546875 2.953125 -3.640625 2.640625 -3.640625 C 2.316406 -3.640625 2.070312 -3.519531 1.90625 -3.28125 C 1.738281 -3.039062 1.65625 -2.695312 1.65625 -2.25 L 1.65625 -0.40625 L 2.25 -0.40625 L 2.25 0 Z "/>
</g>
</g>
</defs>
<g fill="rgb(98.431373%, 74.901961%, 14.117647%)" fill-opacity="1">
<use xlink:href="#glyph-0-0" x="30" y="27.21875"/>
<use xlink:href="#glyph-0-1" x="36" y="27.21875"/>
<use xlink:href="#glyph-0-2" x="41" y="27.21875"/>
<use xlink:href="#glyph-0-3" x="45" y="27.21875"/>
<use xlink:href="#glyph-0-4" x="50" y="27.21875"/>
<use xlink:href="#glyph-0-4" x="54" y="27.21875"/>
<use xlink:href="#glyph-0-1" x="58" y="27.21875"/>
<use xlink:href="#glyph-0-5" x="63" y="27.21875"/>
<use xlink:href="#glyph-0-2" x="68" y="27.21875"/>
<use xlink:href="#glyph-0-1" x="72" y="27.21875"/>
</g>
</svg>
