<svg xmlns="http://www.w3.org/2000/svg" xmlns:xlink="http://www.w3.org/1999/xlink" width="854" height="480" viewBox="0 0 854 480"><defs><g><g id="glyph-0-0"><path d="M 0.46875 -0.171875 L 0.46875 -1 L 0.75 -1 C 0.75 -0.726562 0.828125 -0.523438 0.984375 -0.390625 C 1.140625 -0.253906 1.375 -0.1875 1.6875 -0.1875 C 1.96875 -0.1875 2.1875 -0.242188 2.34375 -0.359375 C 2.5 -0.472656 2.578125 -0.640625 2.578125 -0.859375 C 2.578125 -1.035156 2.53125 -1.171875 2.4375 -1.265625 C 2.34375 -1.359375 2.144531 -1.453125 1.84375 -1.546875 L 1.375 -1.6875 C 1.019531 -1.789062 0.769531 -1.921875 0.625 -2.078125 C 0.488281 -2.242188 0.421875 -2.460938 0.421875 -2.734375 C 0.421875 -3.046875 0.53125 -3.285156 0.75 -3.453125 C 0.96875 -3.628906 1.273438 -3.71875 1.671875 -3.71875 C 1.835938 -3.71875 2.019531 -3.695312 2.21875 -3.65625 C 2.425781 -3.613281 2.644531 -3.5625 2.875 -3.5 L 2.875 -2.71875 L 2.59375 -2.71875 C 2.570312 -2.976562 2.488281 -3.164062 2.34375 -3.28125 C 2.195312 -3.394531 1.976562 -3.453125 1.6875 -3.453125 C 1.425781 -3.453125 1.226562 -3.398438 1.09375 -3.296875 C 0.957031 -3.191406 0.890625 -3.035156 0.890625 -2.828125 C 0.890625 -2.660156 0.941406 -2.523438 1.046875 -2.421875 C 1.148438 -2.328125 1.363281 -2.226562 1.6875 -2.125 L 2.140625 -2 C 2.472656 -1.894531 2.707031 -1.765625 2.84375 -1.609375 C 2.988281 -1.460938 3.0625 -1.257812 3.0625 -1 C 3.0625 -0.644531 2.945312 -0.375 2.71875 -0.1875 C 2.488281 -0.0078125 2.148438 0.078125 1.703125 0.078125 C 1.503906 0.078125 1.300781 0.0546875 1.09375 0.015625 C 0.882812 -0.0234375 0.675781 -0.0859375 0.46875 -0.171875 Z"/></g></g></defs><g fill="#A78BFA" fill-opacity="1"><use x="30" y="24.642" xlink:href="#glyph-0-0"/></g></svg>