<?xml version="1.0" encoding="UTF-8"?>
<svg xmlns="http://www.w3.org/2000/svg" xmlns:xlink="http://www.w3.org/1999/xlink" width="854" height="480" viewBox="0 0 854 480">
<defs>
<g>
<g id="glyph-0-0">
<path d="M -0.078125 0 L -0.078125 -0.59375 L 0.515625 -0.59375 L 3.265625 -7.296875 L 4.421875 -7.296875 L 7.171875 -0.59375 L 7.875 -0.59375 L 7.875 0 L 4.453125 0 L 4.453125 -0.59375 L 5.171875 -0.59375 L 4.578125 -2.078125 L 1.828125 -2.078125 L 1.21875 -0.59375 L 2.09375 -0.59375 L 2.09375 0 Z M 2.078125 -2.671875 L 4.328125 -2.671875 L 3.203125 -5.453125 Z "/>
</g>
<g id="glyph-0-1">
<path d="M 2.703125 -2.859375 L 2.703125 -2.34375 C 2.703125 -1.738281 2.78125 -1.300781 2.9375 -1.03125 C 3.09375 -0.757812 3.34375 -0.625 3.6875 -0.625 C 4.039062 -0.625 4.289062 -0.765625 4.4375 -1.046875 C 4.582031 -1.335938 4.65625 -1.851562 4.65625 -2.59375 C 4.65625 -3.34375 4.582031 -3.859375 4.4375 -4.140625 C 4.289062 -4.429688 4.039062 -4.578125 3.6875 -4.578125 C 3.34375 -4.578125 3.09375 -4.441406 2.9375 -4.171875 C 2.78125 -3.898438 2.703125 -3.460938 2.703125 -2.859375 Z M 0.96875 -4.59375 L 0.234375 -4.59375 L 0.234375 -5.1875 L 2.703125 -5.1875 L 2.703125 -4.53125 C 2.847656 -4.800781 3.039062 -5 3.28125 -5.125 C 3.53125 -5.257812 3.835938 -5.328125 4.203125 -5.328125 C 4.941406 -5.328125 5.523438 -5.082031 5.953125 -4.59375 C 6.378906 -4.113281 6.59375 -3.445312 6.59375 -2.59375 C 6.59375 -1.75 6.378906 -1.082031 5.953125 -0.59375 C 5.523438 -0.101562 4.941406 0.140625 4.203125 0.140625 C 3.835938 0.140625 3.53125 0.078125 3.28125 -0.046875 C 3.039062 -0.179688 2.847656 -0.382812 2.703125 -0.65625 L 2.703125 1.484375 L 3.5 1.484375 L 3.5 2.078125 L 0.234375 2.078125 L 0.234375 1.484375 L 0.96875 1.484375 Z "/>
</g>
<g id="glyph-0-2">
<path d="M 2.8125 -0.59375 L 3.546875 -0.59375 L 3.546875 0 L 0.34375 0 L 0.34375 -0.59375 L 1.078125 -0.59375 L 1.078125 -7.015625 L 0.34375 -7.015625 L 0.34375 -7.59375 L 2.8125 -7.59375 Z "/>
</g>
<g id="glyph-0-3">
<path d="M 0.921875 -6.65625 C 0.921875 -6.925781 1.007812 -7.148438 1.1875 -7.328125 C 1.375 -7.503906 1.597656 -7.59375 1.859375 -7.59375 C 2.117188 -7.59375 2.335938 -7.503906 2.515625 -7.328125 C 2.691406 -7.148438 2.78125 -6.925781 2.78125 -6.65625 C 2.78125 -6.40625 2.691406 -6.1875 2.515625 -6 C 2.335938 -5.820312 2.117188 -5.734375 1.859375 -5.734375 C 1.597656 -5.734375 1.375 -5.820312 1.1875 -6 C 1.007812 -6.175781 0.921875 -6.394531 0.921875 -6.65625 Z M 2.8125 -0.59375 L 3.546875 -0.59375 L 3.546875 0 L 0.34375 0 L 0.34375 -0.59375 L 1.078125 -0.59375 L 1.078125 -4.59375 L 0.34375 -4.59375 L 0.34375 -5.1875 L 2.8125 -5.1875 Z "/>
</g>
<g id="glyph-0-4">
<path d="M 5.640625 -1.625 C 5.515625 -1.03125 5.257812 -0.585938 4.875 -0.296875 C 4.5 -0.00390625 3.984375 0.140625 3.328125 0.140625 C 2.398438 0.140625 1.679688 -0.0976562 1.171875 -0.578125 C 0.660156 -1.054688 0.40625 -1.726562 0.40625 -2.59375 C 0.40625 -3.457031 0.65625 -4.128906 1.15625 -4.609375 C 1.664062 -5.085938 2.363281 -5.328125 3.25 -5.328125 C 3.613281 -5.328125 3.976562 -5.289062 4.34375 -5.21875 C 4.707031 -5.15625 5.082031 -5.054688 5.46875 -4.921875 L 5.46875 -3.484375 L 4.921875 -3.484375 C 4.867188 -3.921875 4.738281 -4.242188 4.53125 -4.453125 C 4.332031 -4.671875 4.046875 -4.78125 3.671875 -4.78125 C 3.191406 -4.78125 2.847656 -4.613281 2.640625 -4.28125 C 2.441406 -3.957031 2.34375 -3.394531 2.34375 -2.59375 C 2.34375 -1.8125 2.441406 -1.25 2.640625 -0.90625 C 2.835938 -0.570312 3.160156 -0.40625 3.609375 -0.40625 C 3.953125 -0.40625 4.226562 -0.507812 4.4375 -0.71875 C 4.65625 -0.925781 4.785156 -1.226562 4.828125 -1.625 Z "/>
</g>
<g id="glyph-0-5">
<path d="M 5.515625 -3.1875 L 5.515625 -0.59375 L 6.25 -0.59375 L 6.25 0 L 3.78125 0 L 3.78125 -0.65625 C 3.550781 -0.382812 3.296875 -0.179688 3.015625 -0.046875 C 2.734375 0.078125 2.414062 0.140625 2.0625 0.140625 C 1.53125 0.140625 1.117188 0 0.828125 -0.28125 C 0.546875 -0.570312 0.40625 -0.984375 0.40625 -1.515625 C 0.40625 -2.097656 0.609375 -2.53125 1.015625 -2.8125 C 1.429688 -3.101562 2.050781 -3.25 2.875 -3.25 L 3.78125 -3.25 L 3.78125 -3.5625 C 3.78125 -3.976562 3.679688 -4.285156 3.484375 -4.484375 C 3.285156 -4.691406 2.976562 -4.796875 2.5625 -4.796875 C 2.21875 -4.796875 1.953125 -4.722656 1.765625 -4.578125 C 1.578125 -4.429688 1.441406 -4.195312 1.359375 -3.875 L 0.8125 -3.875 L 0.8125 -5 C 1.125 -5.113281 1.441406 -5.195312 1.765625 -5.25 C 2.097656 -5.300781 2.453125 -5.328125 2.828125 -5.328125 C 3.753906 -5.328125 4.429688 -5.15625 4.859375 -4.8125 C 5.296875 -4.46875 5.515625 -3.925781 5.515625 -3.1875 Z M 3.78125 -1.625 L 3.78125 -2.671875 L 3.125 -2.671875 C 2.800781 -2.671875 2.550781 -2.582031 2.375 -2.40625 C 2.207031 -2.226562 2.125 -1.976562 2.125 -1.65625 C 2.125 -1.320312 2.1875 -1.070312 2.3125 -0.90625 C 2.4375 -0.75 2.628906 -0.671875 2.890625 -0.671875 C 3.160156 -0.671875 3.375 -0.757812 3.53125 -0.9375 C 3.695312 -1.113281 3.78125 -1.34375 3.78125 -1.625 Z "/>
</g>
<g id="glyph-0-6">
<path d="M 0.984375 -4.59375 L 0.234375 -4.59375 L 0.234375 -5.1875 L 0.984375 -5.1875 L 0.984375 -6.796875 L 2.71875 -6.796875 L 2.71875 -5.1875 L 4.15625 -5.1875 L 4.15625 -4.59375 L 2.71875 -4.59375 L 2.71875 -1.421875 C 2.71875 -0.972656 2.753906 -0.691406 2.828125 -0.578125 C 2.898438 -0.460938 3.03125 -0.40625 3.21875 -0.40625 C 3.425781 -0.40625 3.578125 -0.472656 3.671875 -0.609375 C 3.773438 -0.753906 3.832031 -0.972656 3.84375 -1.265625 L 4.578125 -1.265625 C 4.546875 -0.742188 4.398438 -0.378906 4.140625 -0.171875 C 3.890625 0.0351562 3.453125 0.140625 2.828125 0.140625 C 2.109375 0.140625 1.617188 0.03125 1.359375 -0.1875 C 1.109375 -0.414062 0.984375 -0.828125 0.984375 -1.421875 Z "/>
</g>
<g id="glyph-0-7">
<path d="M 3.34375 -0.40625 C 3.707031 -0.40625 3.960938 -0.5625 4.109375 -0.875 C 4.253906 -1.1875 4.328125 -1.757812 4.328125 -2.59375 C 4.328125 -3.425781 4.253906 -4 4.109375 -4.3125 C 3.960938 -4.625 3.707031 -4.78125 3.34375 -4.78125 C 2.96875 -4.78125 2.707031 -4.625 2.5625 -4.3125 C 2.414062 -4 2.34375 -3.425781 2.34375 -2.59375 C 2.34375 -1.769531 2.414062 -1.195312 2.5625 -0.875 C 2.707031 -0.5625 2.96875 -0.40625 3.34375 -0.40625 Z M 3.34375 0.140625 C 2.425781 0.140625 1.707031 -0.0976562 1.1875 -0.578125 C 0.664062 -1.066406 0.40625 -1.738281 0.40625 -2.59375 C 0.40625 -3.445312 0.664062 -4.113281 1.1875 -4.59375 C 1.707031 -5.082031 2.425781 -5.328125 3.34375 -5.328125 C 4.257812 -5.328125 4.972656 -5.082031 5.484375 -4.59375 C 6.003906 -4.113281 6.265625 -3.445312 6.265625 -2.59375 C 6.265625 -1.738281 6.003906 -1.066406 5.484375 -0.578125 C 4.972656 -0.0976562 4.257812 0.140625 3.34375 0.140625 Z "/>
</g>
<g id="glyph-0-8">
<path d="M 0.34375 0 L 0.34375 -0.59375 L 1.078125 -0.59375 L 1.078125 -4.59375 L 0.34375 -4.59375 L 0.34375 -5.1875 L 2.8125 -5.1875 L 2.8125 -4.453125 C 3.019531 -4.765625 3.253906 -4.988281 3.515625 -5.125 C 3.785156 -5.257812 4.125 -5.328125 4.53125 -5.328125 C 5.113281 -5.328125 5.550781 -5.15625 5.84375 -4.8125 C 6.144531 -4.46875 6.296875 -3.960938 6.296875 -3.296875 L 6.296875 -0.59375 L 7.046875 -0.59375 L 7.046875 0 L 3.9375 0 L 3.9375 -0.59375 L 4.578125 -0.59375 L 4.578125 -3.34375 C 4.578125 -3.789062 4.519531 -4.097656 4.40625 -4.265625 C 4.289062 -4.429688 4.09375 -4.515625 3.8125 -4.515625 C 3.46875 -4.515625 3.210938 -4.382812 3.046875 -4.125 C 2.890625 -3.875 2.8125 -3.472656 2.8125 -2.921875 L 2.8125 -0.59375 L 3.4375 -0.59375 L 3.4375 0 Z "/>
</g>
<g id="glyph-0-9">
</g>
<g id="glyph-0-10">
<path d="M 0.859375 -7.078125 C 1.285156 -7.191406 1.703125 -7.273438 2.109375 -7.328125 C 2.515625 -7.390625 2.910156 -7.421875 3.296875 -7.421875 C 4.171875 -7.421875 4.84375 -7.265625 5.3125 -6.953125 C 5.78125 -6.640625 6.015625 -6.1875 6.015625 -5.59375 C 6.015625 -5.15625 5.878906 -4.800781 5.609375 -4.53125 C 5.335938 -4.257812 4.941406 -4.078125 4.421875 -3.984375 C 5.054688 -3.878906 5.53125 -3.660156 5.84375 -3.328125 C 6.15625 -2.992188 6.3125 -2.539062 6.3125 -1.96875 C 6.3125 -1.289062 6.039062 -0.769531 5.5 -0.40625 C 4.96875 -0.0390625 4.191406 0.140625 3.171875 0.140625 C 2.785156 0.140625 2.390625 0.109375 1.984375 0.046875 C 1.578125 -0.015625 1.148438 -0.113281 0.703125 -0.25 L 0.703125 -1.84375 L 1.296875 -1.84375 C 1.328125 -1.382812 1.46875 -1.035156 1.71875 -0.796875 C 1.976562 -0.554688 2.332031 -0.4375 2.78125 -0.4375 C 3.269531 -0.4375 3.648438 -0.570312 3.921875 -0.84375 C 4.191406 -1.113281 4.328125 -1.503906 4.328125 -2.015625 C 4.328125 -2.535156 4.1875 -2.9375 3.90625 -3.21875 C 3.625 -3.507812 3.222656 -3.65625 2.703125 -3.65625 L 2.390625 -3.65625 L 2.390625 -4.25 L 2.640625 -4.25 C 3.117188 -4.25 3.476562 -4.359375 3.71875 -4.578125 C 3.957031 -4.796875 4.078125 -5.128906 4.078125 -5.578125 C 4.078125 -5.984375 3.960938 -6.296875 3.734375 -6.515625 C 3.515625 -6.734375 3.191406 -6.84375 2.765625 -6.84375 C 2.378906 -6.84375 2.070312 -6.738281 1.84375 -6.53125 C 1.625 -6.320312 1.492188 -6.019531 1.453125 -5.625 L 0.859375 -5.625 Z "/>
</g>
<g id="glyph-0-11">
<path d="M 0.921875 -3.96875 C 0.921875 -4.226562 1.007812 -4.445312 1.1875 -4.625 C 1.363281 -4.8125 1.582031 -4.90625 1.84375 -4.90625 C 2.09375 -4.90625 2.304688 -4.8125 2.484375 -4.625 C 2.671875 -4.4375 2.765625 -4.21875 2.765625 -3.96875 C 2.765625 -3.71875 2.675781 -3.5 2.5 -3.3125 C 2.320312 -3.132812 2.101562 -3.046875 1.84375 -3.046875 C 1.582031 -3.046875 1.363281 -3.132812 1.1875 -3.3125 C 1.007812 -3.5 0.921875 -3.71875 0.921875 -3.96875 Z M 0.921875 -0.796875 C 0.921875 -1.046875 1.007812 -1.257812 1.1875 -1.4375 C 1.363281 -1.625 1.582031 -1.71875 1.84375 -1.71875 C 2.09375 -1.71875 2.304688 -1.625 2.484375 -1.4375 C 2.671875 -1.257812 2.765625 -1.046875 2.765625 -0.796875 C 2.765625 -0.535156 2.671875 -0.3125 2.484375 -0.125 C 2.304688 0.0507812 2.09375 0.140625 1.84375 0.140625 C 1.582031 0.140625 1.363281 0.0507812 1.1875 -0.125 C 1.007812 -0.3125 0.921875 -0.535156 0.921875 -0.796875 Z "/>
</g>
<g id="glyph-0-12">
<path d="M 0.765625 -0.359375 L 0.765625 -2.078125 L 1.390625 -2.078125 C 1.484375 -1.535156 1.707031 -1.128906 2.0625 -0.859375 C 2.414062 -0.585938 2.898438 -0.453125 3.515625 -0.453125 C 4.023438 -0.453125 4.410156 -0.546875 4.671875 -0.734375 C 4.929688 -0.929688 5.0625 -1.210938 5.0625 -1.578125 C 5.0625 -1.867188 4.972656 -2.097656 4.796875 -2.265625 C 4.617188 -2.429688 4.25 -2.582031 3.6875 -2.71875 L 2.59375 -2.984375 C 1.882812 -3.171875 1.382812 -3.425781 1.09375 -3.75 C 0.800781 -4.070312 0.65625 -4.53125 0.65625 -5.125 C 0.65625 -5.851562 0.894531 -6.414062 1.375 -6.8125 C 1.851562 -7.21875 2.53125 -7.421875 3.40625 -7.421875 C 3.820312 -7.421875 4.257812 -7.382812 4.71875 -7.3125 C 5.1875 -7.238281 5.664062 -7.132812 6.15625 -7 L 6.15625 -5.375 L 5.546875 -5.375 C 5.453125 -5.882812 5.242188 -6.253906 4.921875 -6.484375 C 4.597656 -6.710938 4.144531 -6.828125 3.5625 -6.828125 C 3.082031 -6.828125 2.71875 -6.742188 2.46875 -6.578125 C 2.21875 -6.410156 2.09375 -6.160156 2.09375 -5.828125 C 2.09375 -5.523438 2.175781 -5.296875 2.34375 -5.140625 C 2.519531 -4.984375 2.9375 -4.820312 3.59375 -4.65625 L 4.6875 -4.375 C 5.363281 -4.207031 5.851562 -3.941406 6.15625 -3.578125 C 6.46875 -3.222656 6.625 -2.734375 6.625 -2.109375 C 6.625 -1.367188 6.367188 -0.804688 5.859375 -0.421875 C 5.347656 -0.046875 4.601562 0.140625 3.625 0.140625 C 3.144531 0.140625 2.671875 0.0976562 2.203125 0.015625 C 1.734375 -0.0664062 1.253906 -0.191406 0.765625 -0.359375 Z "/>
</g>
<g id="glyph-0-13">
<path d="M 6.1875 -5.1875 L 6.1875 -0.59375 L 6.921875 -0.59375 L 6.921875 0 L 4.453125 0 L 4.453125 -0.734375 C 4.253906 -0.421875 4.019531 -0.195312 3.75 -0.0625 C 3.476562 0.0703125 3.140625 0.140625 2.734375 0.140625 C 2.148438 0.140625 1.707031 -0.03125 1.40625 -0.375 C 1.113281 -0.71875 0.96875 -1.222656 0.96875 -1.890625 L 0.96875 -4.59375 L 0.234375 -4.59375 L 0.234375 -5.1875 L 2.703125 -5.1875 L 2.703125 -2.15625 C 2.703125 -1.507812 2.753906 -1.097656 2.859375 -0.921875 C 2.960938 -0.753906 3.160156 -0.671875 3.453125 -0.671875 C 3.796875 -0.671875 4.046875 -0.796875 4.203125 -1.046875 C 4.367188 -1.304688 4.453125 -1.71875 4.453125 -2.28125 L 4.453125 -4.59375 L 3.828125 -4.59375 L 3.828125 -5.1875 Z "/>
</g>
<g id="glyph-0-14">
<path d="M 4.296875 -2.34375 L 4.296875 -2.859375 C 4.296875 -3.460938 4.21875 -3.898438 4.0625 -4.171875 C 3.90625 -4.441406 3.65625 -4.578125 3.3125 -4.578125 C 2.957031 -4.578125 2.707031 -4.429688 2.5625 -4.140625 C 2.414062 -3.859375 2.34375 -3.34375 2.34375 -2.59375 C 2.34375 -1.851562 2.414062 -1.335938 2.5625 -1.046875 C 2.707031 -0.765625 2.957031 -0.625 3.3125 -0.625 C 3.65625 -0.625 3.90625 -0.757812 4.0625 -1.03125 C 4.21875 -1.300781 4.296875 -1.738281 4.296875 -2.34375 Z M 6.015625 -0.59375 L 6.765625 -0.59375 L 6.765625 0 L 4.296875 0 L 4.296875 -0.65625 C 4.148438 -0.382812 3.953125 -0.179688 3.703125 -0.046875 C 3.453125 0.078125 3.144531 0.140625 2.78125 0.140625 C 2.039062 0.140625 1.457031 -0.101562 1.03125 -0.59375 C 0.613281 -1.082031 0.40625 -1.75 0.40625 -2.59375 C 0.40625 -3.445312 0.613281 -4.113281 1.03125 -4.59375 C 1.457031 -5.082031 2.039062 -5.328125 2.78125 -5.328125 C 3.144531 -5.328125 3.453125 -5.257812 3.703125 -5.125 C 3.953125 -5 4.148438 -4.800781 4.296875 -4.53125 L 4.296875 -7.015625 L 3.546875 -7.015625 L 3.546875 -7.59375 L 6.015625 -7.59375 Z "/>
</g>
<g id="glyph-0-15">
<path d="M 3.125 1.171875 C 2.96875 1.554688 2.773438 1.828125 2.546875 1.984375 C 2.328125 2.140625 2.03125 2.21875 1.65625 2.21875 C 1.5 2.21875 1.320312 2.195312 1.125 2.15625 C 0.925781 2.125 0.710938 2.078125 0.484375 2.015625 L 0.484375 0.921875 L 1.046875 0.9375 C 1.054688 1.1875 1.113281 1.367188 1.21875 1.484375 C 1.320312 1.609375 1.484375 1.671875 1.703125 1.671875 C 1.921875 1.671875 2.09375 1.613281 2.21875 1.5 C 2.351562 1.382812 2.484375 1.164062 2.609375 0.84375 L 2.6875 0.65625 L 0.4375 -4.59375 L -0.125 -4.59375 L -0.125 -5.1875 L 2.859375 -5.1875 L 2.859375 -4.59375 L 2.234375 -4.59375 L 3.5625 -1.53125 L 4.796875 -4.59375 L 4.109375 -4.59375 L 4.109375 -5.1875 L 6.046875 -5.1875 L 6.046875 -4.59375 L 5.421875 -4.59375 Z "/>
</g>
<g id="glyph-0-16">
<path d="M 0.34375 0 L 0.34375 -0.59375 L 1.078125 -0.59375 L 1.078125 -7.015625 L 0.3125 -7.015625 L 0.3125 -7.59375 L 2.8125 -7.59375 L 2.8125 -4.453125 C 3.019531 -4.765625 3.253906 -4.988281 3.515625 -5.125 C 3.785156 -5.257812 4.125 -5.328125 4.53125 -5.328125 C 5.113281 -5.328125 5.550781 -5.15625 5.84375 -4.8125 C 6.144531 -4.46875 6.296875 -3.960938 6.296875 -3.296875 L 6.296875 -0.59375 L 7.046875 -0.59375 L 7.046875 0 L 3.9375 0 L 3.9375 -0.59375 L 4.578125 -0.59375 L 4.578125 -3.34375 C 4.578125 -3.789062 4.519531 -4.097656 4.40625 -4.265625 C 4.289062 -4.429688 4.09375 -4.515625 3.8125 -4.515625 C 3.46875 -4.515625 3.210938 -4.382812 3.046875 -4.125 C 2.890625 -3.875 2.8125 -3.472656 2.8125 -2.921875 L 2.8125 -0.59375 L 3.4375 -0.59375 L 3.4375 0 Z "/>
</g>
<g id="glyph-0-17">
<path d="M 4.015625 -2.9375 C 4.015625 -3.613281 3.945312 -4.085938 3.8125 -4.359375 C 3.6875 -4.640625 3.472656 -4.78125 3.171875 -4.78125 C 2.867188 -4.78125 2.65625 -4.644531 2.53125 -4.375 C 2.40625 -4.101562 2.34375 -3.648438 2.34375 -3.015625 L 2.34375 -2.9375 Z M 5.90625 -2.34375 L 2.34375 -2.34375 L 2.34375 -2.3125 C 2.34375 -1.632812 2.441406 -1.144531 2.640625 -0.84375 C 2.835938 -0.550781 3.164062 -0.40625 3.625 -0.40625 C 4 -0.40625 4.300781 -0.503906 4.53125 -0.703125 C 4.757812 -0.898438 4.90625 -1.191406 4.96875 -1.578125 L 5.78125 -1.578125 C 5.644531 -0.984375 5.367188 -0.546875 4.953125 -0.265625 C 4.535156 0.00390625 3.953125 0.140625 3.203125 0.140625 C 2.296875 0.140625 1.601562 -0.09375 1.125 -0.5625 C 0.644531 -1.039062 0.40625 -1.71875 0.40625 -2.59375 C 0.40625 -3.457031 0.648438 -4.128906 1.140625 -4.609375 C 1.640625 -5.085938 2.328125 -5.328125 3.203125 -5.328125 C 4.054688 -5.328125 4.710938 -5.070312 5.171875 -4.5625 C 5.628906 -4.0625 5.875 -3.320312 5.90625 -2.34375 Z "/>
</g>
<g id="glyph-0-18">
<path d="M 0.46875 -0.15625 L 0.46875 -1.609375 L 1.015625 -1.609375 C 1.066406 -1.210938 1.210938 -0.910156 1.453125 -0.703125 C 1.703125 -0.503906 2.035156 -0.40625 2.453125 -0.40625 C 2.804688 -0.40625 3.078125 -0.46875 3.265625 -0.59375 C 3.453125 -0.71875 3.546875 -0.894531 3.546875 -1.125 C 3.546875 -1.332031 3.484375 -1.488281 3.359375 -1.59375 C 3.242188 -1.707031 3.015625 -1.8125 2.671875 -1.90625 L 1.953125 -2.078125 C 1.421875 -2.210938 1.035156 -2.40625 0.796875 -2.65625 C 0.554688 -2.90625 0.4375 -3.238281 0.4375 -3.65625 C 0.4375 -4.21875 0.628906 -4.632812 1.015625 -4.90625 C 1.410156 -5.1875 2.015625 -5.328125 2.828125 -5.328125 C 3.128906 -5.328125 3.453125 -5.300781 3.796875 -5.25 C 4.148438 -5.207031 4.535156 -5.128906 4.953125 -5.015625 L 4.953125 -3.71875 L 4.40625 -3.71875 C 4.375 -4.070312 4.242188 -4.335938 4.015625 -4.515625 C 3.796875 -4.691406 3.476562 -4.78125 3.0625 -4.78125 C 2.707031 -4.78125 2.441406 -4.722656 2.265625 -4.609375 C 2.085938 -4.492188 2 -4.332031 2 -4.125 C 2 -3.945312 2.050781 -3.804688 2.15625 -3.703125 C 2.257812 -3.609375 2.441406 -3.523438 2.703125 -3.453125 L 3.421875 -3.265625 C 4.097656 -3.097656 4.566406 -2.882812 4.828125 -2.625 C 5.085938 -2.375 5.21875 -2.023438 5.21875 -1.578125 C 5.21875 -0.984375 5.007812 -0.546875 4.59375 -0.265625 C 4.175781 0.00390625 3.523438 0.140625 2.640625 0.140625 C 2.316406 0.140625 1.972656 0.113281 1.609375 0.0625 C 1.253906 0.0195312 0.875 -0.0507812 0.46875 -0.15625 Z "/>
</g>
</g>
</defs>
<g fill="rgb(88.627451%, 90.980392%, 94.117647%)" fill-opacity="1">
<use xlink:href="#glyph-0-0" x="30" y="29.389648"/>
<use xlink:href="#glyph-0-1" x="38" y="29.389648"/>
<use xlink:href="#glyph-0-1" x="45" y="29.389648"/>
<use xlink:href="#glyph-0-2" x="52" y="29.389648"/>
<use xlink:href="#glyph-0-3" x="56" y="29.389648"/>
<use xlink:href="#glyph-0-4" x="60" y="29.389648"/>
<use xlink:href="#glyph-0-5" x="66" y="29.389648"/>
<use xlink:href="#glyph-0-6" x="72" y="29.389648"/>
<use xlink:href="#glyph-0-3" x="77" y="29.389648"/>
<use xlink:href="#glyph-0-7" x="81" y="29.389648"/>
<use xlink:href="#glyph-0-8" x="88" y="29.389648"/>
<use xlink:href="#glyph-0-9" x="95" y="29.389648"/>
<use xlink:href="#glyph-0-10" x="98" y="29.389648"/>
<use xlink:href="#glyph-0-11" x="105" y="29.389648"/>
<use xlink:href="#glyph-0-9" x="109" y="29.389648"/>
<use xlink:href="#glyph-0-12" x="112" y="29.389648"/>
<use xlink:href="#glyph-0-6" x="119" y="29.389648"/>
<use xlink:href="#glyph-0-13" x="124" y="29.389648"/>
<use xlink:href="#glyph-0-14" x="131" y="29.389648"/>
<use xlink:href="#glyph-0-15" x="138" y="29.389648"/>
<use xlink:href="#glyph-0-9" x="144" y="29.389648"/>
<use xlink:href="#glyph-0-12" x="147" y="29.389648"/>
<use xlink:href="#glyph-0-4" x="154" y="29.389648"/>
<use xlink:href="#glyph-0-16" x="160" y="29.389648"/>
<use xlink:href="#glyph-0-17" x="167" y="29.389648"/>
<use xlink:href="#glyph-0-14" x="173" y="29.389648"/>
<use xlink:href="#glyph-0-13" x="180" y="29.389648"/>
<use xlink:href="#glyph-0-2" x="187" y="29.389648"/>
<use xlink:href="#glyph-0-17" x="191" y="29.389648"/>
<use xlink:href="#glyph-0-18" x="197" y="29.389648"/>
</g>
</svg>
