<?xml version="1.0" encoding="UTF-8"?>
<svg xmlns="http://www.w3.org/2000/svg" xmlns:xlink="http://www.w3.org/1999/xlink" width="854" height="480" viewBox="0 0 854 480">
<defs>
<g>
<g id="glyph-0-0">
<path d="M 0.578125 0 L 0.578125 -0.71875 L 1.71875 -0.71875 L 1.71875 -8.1875 L 0.578125 -8.1875 L 0.578125 -8.90625 L 5.640625 -8.90625 C 6.628906 -8.90625 7.414062 -8.671875 8 -8.203125 C 8.59375 -7.734375 8.890625 -7.101562 8.890625 -6.3125 C 8.890625 -5.507812 8.59375 -4.867188 8 -4.390625 C 7.414062 -3.921875 6.628906 -3.6875 5.640625 -3.6875 L 4.015625 -3.6875 L 4.015625 -0.71875 L 5.453125 -0.71875 L 5.453125 0 Z M 4.015625 -4.40625 L 4.671875 -4.40625 C 5.191406 -4.40625 5.601562 -4.578125 5.90625 -4.921875 C 6.21875 -5.265625 6.375 -5.726562 6.375 -6.3125 C 6.375 -6.882812 6.21875 -7.335938 5.90625 -7.671875 C 5.601562 -8.015625 5.191406 -8.1875 4.671875 -8.1875 L 4.015625 -8.1875 Z "/>
</g>
<g id="glyph-0-1">
<path d="M 4.078125 -0.5 C 4.523438 -0.5 4.835938 -0.6875 5.015625 -1.0625 C 5.203125 -1.445312 5.296875 -2.148438 5.296875 -3.171875 C 5.296875 -4.191406 5.203125 -4.890625 5.015625 -5.265625 C 4.835938 -5.648438 4.523438 -5.84375 4.078125 -5.84375 C 3.628906 -5.84375 3.3125 -5.648438 3.125 -5.265625 C 2.945312 -4.878906 2.859375 -4.179688 2.859375 -3.171875 C 2.859375 -2.160156 2.945312 -1.460938 3.125 -1.078125 C 3.3125 -0.691406 3.628906 -0.5 4.078125 -0.5 Z M 4.078125 0.171875 C 2.960938 0.171875 2.085938 -0.125 1.453125 -0.71875 C 0.816406 -1.3125 0.5 -2.128906 0.5 -3.171875 C 0.5 -4.222656 0.816406 -5.039062 1.453125 -5.625 C 2.085938 -6.21875 2.960938 -6.515625 4.078125 -6.515625 C 5.203125 -6.515625 6.078125 -6.21875 6.703125 -5.625 C 7.335938 -5.039062 7.65625 -4.222656 7.65625 -3.171875 C 7.65625 -2.128906 7.335938 -1.3125 6.703125 -0.71875 C 6.066406 -0.125 5.191406 0.171875 4.078125 0.171875 Z "/>
</g>
<g id="glyph-0-2">
<path d="M 6.59375 -6.34375 L 8.03125 -2.109375 L 9.21875 -5.625 L 8.390625 -5.625 L 8.390625 -6.34375 L 10.765625 -6.34375 L 10.765625 -5.625 L 10.015625 -5.625 L 8.109375 0 L 6.640625 0 L 5.296875 -3.96875 L 3.953125 0 L 2.5 0 L 0.578125 -5.625 L -0.109375 -5.625 L -0.109375 -6.34375 L 3.484375 -6.34375 L 3.484375 -5.625 L 2.734375 -5.625 L 3.90625 -2.1875 L 5.328125 -6.34375 Z "/>
</g>
<g id="glyph-0-3">
<path d="M 4.890625 -3.578125 C 4.890625 -4.410156 4.8125 -4.992188 4.65625 -5.328125 C 4.507812 -5.671875 4.25 -5.84375 3.875 -5.84375 C 3.507812 -5.84375 3.25 -5.675781 3.09375 -5.34375 C 2.9375 -5.007812 2.859375 -4.457031 2.859375 -3.6875 L 2.859375 -3.578125 Z M 7.21875 -2.875 L 2.859375 -2.875 L 2.859375 -2.828125 C 2.859375 -2.003906 2.976562 -1.410156 3.21875 -1.046875 C 3.46875 -0.679688 3.867188 -0.5 4.421875 -0.5 C 4.878906 -0.5 5.25 -0.617188 5.53125 -0.859375 C 5.8125 -1.109375 5.992188 -1.460938 6.078125 -1.921875 L 7.0625 -1.921875 C 6.894531 -1.203125 6.554688 -0.671875 6.046875 -0.328125 C 5.535156 0.00390625 4.820312 0.171875 3.90625 0.171875 C 2.8125 0.171875 1.96875 -0.113281 1.375 -0.6875 C 0.789062 -1.269531 0.5 -2.097656 0.5 -3.171875 C 0.5 -4.222656 0.796875 -5.039062 1.390625 -5.625 C 1.992188 -6.21875 2.832031 -6.515625 3.90625 -6.515625 C 4.957031 -6.515625 5.765625 -6.203125 6.328125 -5.578125 C 6.890625 -4.960938 7.1875 -4.0625 7.21875 -2.875 Z "/>
</g>
<g id="glyph-0-4">
<path d="M 6.5625 -6.40625 L 6.5625 -4.515625 L 5.890625 -4.515625 C 5.867188 -4.859375 5.773438 -5.113281 5.609375 -5.28125 C 5.453125 -5.445312 5.222656 -5.53125 4.921875 -5.53125 C 4.460938 -5.53125 4.097656 -5.328125 3.828125 -4.921875 C 3.566406 -4.515625 3.4375 -3.953125 3.4375 -3.234375 L 3.4375 -0.71875 L 4.578125 -0.71875 L 4.578125 0 L 0.421875 0 L 0.421875 -0.71875 L 1.3125 -0.71875 L 1.3125 -5.625 L 0.359375 -5.625 L 0.359375 -6.34375 L 3.4375 -6.34375 L 3.4375 -5.21875 C 3.632812 -5.65625 3.90625 -5.976562 4.25 -6.1875 C 4.59375 -6.40625 5.007812 -6.515625 5.5 -6.515625 C 5.625 -6.515625 5.773438 -6.503906 5.953125 -6.484375 C 6.128906 -6.472656 6.332031 -6.445312 6.5625 -6.40625 Z "/>
</g>
<g id="glyph-0-5">
</g>
<g id="glyph-0-6">
<path d="M 5.90625 -7.703125 L 5.25 -7.703125 C 5.21875 -8.003906 5.125 -8.226562 4.96875 -8.375 C 4.820312 -8.53125 4.613281 -8.609375 4.34375 -8.609375 C 4.019531 -8.609375 3.785156 -8.492188 3.640625 -8.265625 C 3.503906 -8.035156 3.4375 -7.664062 3.4375 -7.15625 L 3.4375 -6.34375 L 5.03125 -6.34375 L 5.03125 -5.625 L 3.4375 -5.625 L 3.4375 -0.71875 L 4.65625 -0.71875 L 4.65625 0 L 0.421875 0 L 0.421875 -0.71875 L 1.3125 -0.71875 L 1.3125 -5.625 L 0.375 -5.625 L 0.375 -6.34375 L 1.3125 -6.34375 L 1.3125 -7.140625 C 1.3125 -7.835938 1.535156 -8.367188 1.984375 -8.734375 C 2.441406 -9.097656 3.101562 -9.28125 3.96875 -9.28125 C 4.3125 -9.28125 4.644531 -9.257812 4.96875 -9.21875 C 5.289062 -9.1875 5.601562 -9.132812 5.90625 -9.0625 Z "/>
</g>
<g id="glyph-0-7">
<path d="M 1.21875 -5.625 L 0.296875 -5.625 L 0.296875 -6.34375 L 1.21875 -6.34375 L 1.21875 -8.3125 L 3.328125 -8.3125 L 3.328125 -6.34375 L 5.078125 -6.34375 L 5.078125 -5.625 L 3.328125 -5.625 L 3.328125 -1.734375 C 3.328125 -1.179688 3.367188 -0.835938 3.453125 -0.703125 C 3.535156 -0.566406 3.695312 -0.5 3.9375 -0.5 C 4.1875 -0.5 4.375 -0.582031 4.5 -0.75 C 4.625 -0.925781 4.691406 -1.191406 4.703125 -1.546875 L 5.578125 -1.546875 C 5.546875 -0.910156 5.375 -0.460938 5.0625 -0.203125 C 4.75 0.046875 4.210938 0.171875 3.453125 0.171875 C 2.578125 0.171875 1.984375 0.0351562 1.671875 -0.234375 C 1.367188 -0.503906 1.21875 -1.003906 1.21875 -1.734375 Z "/>
</g>
<g id="glyph-0-8">
<path d="M 0.421875 0 L 0.421875 -0.71875 L 1.3125 -0.71875 L 1.3125 -8.5625 L 0.375 -8.5625 L 0.375 -9.28125 L 3.4375 -9.28125 L 3.4375 -5.453125 C 3.6875 -5.828125 3.972656 -6.097656 4.296875 -6.265625 C 4.628906 -6.429688 5.039062 -6.515625 5.53125 -6.515625 C 6.25 -6.515625 6.789062 -6.300781 7.15625 -5.875 C 7.519531 -5.457031 7.703125 -4.84375 7.703125 -4.03125 L 7.703125 -0.71875 L 8.609375 -0.71875 L 8.609375 0 L 4.8125 0 L 4.8125 -0.71875 L 5.578125 -0.71875 L 5.578125 -4.09375 C 5.578125 -4.625 5.507812 -4.992188 5.375 -5.203125 C 5.238281 -5.421875 5.003906 -5.53125 4.671875 -5.53125 C 4.242188 -5.53125 3.929688 -5.375 3.734375 -5.0625 C 3.535156 -4.75 3.4375 -4.25 3.4375 -3.5625 L 3.4375 -0.71875 L 4.203125 -0.71875 L 4.203125 0 Z "/>
</g>
<g id="glyph-0-9">
<path d="M 0.515625 0 L 0.515625 -0.71875 L 1.640625 -0.71875 L 1.640625 -8.1875 L 0.515625 -8.1875 L 0.515625 -8.90625 L 4.1875 -8.90625 L 6.734375 -3.1875 L 9.28125 -8.90625 L 12.953125 -8.90625 L 12.953125 -8.1875 L 11.8125 -8.1875 L 11.8125 -0.71875 L 12.953125 -0.71875 L 12.953125 0 L 8.375 0 L 8.375 -0.71875 L 9.5 -0.71875 L 9.5 -7.515625 L 6.734375 -1.3125 L 5.234375 -1.3125 L 2.484375 -7.515625 L 2.484375 -0.71875 L 3.609375 -0.71875 L 3.609375 0 Z "/>
</g>
<g id="glyph-0-10">
<path d="M 6.734375 -3.890625 L 6.734375 -0.71875 L 7.640625 -0.71875 L 7.640625 0 L 4.625 0 L 4.625 -0.8125 C 4.34375 -0.46875 4.03125 -0.21875 3.6875 -0.0625 C 3.34375 0.09375 2.953125 0.171875 2.515625 0.171875 C 1.867188 0.171875 1.367188 0 1.015625 -0.34375 C 0.671875 -0.695312 0.5 -1.195312 0.5 -1.84375 C 0.5 -2.550781 0.75 -3.082031 1.25 -3.4375 C 1.75 -3.789062 2.503906 -3.96875 3.515625 -3.96875 L 4.625 -3.96875 L 4.625 -4.34375 C 4.625 -4.863281 4.5 -5.242188 4.25 -5.484375 C 4.007812 -5.734375 3.632812 -5.859375 3.125 -5.859375 C 2.707031 -5.859375 2.382812 -5.769531 2.15625 -5.59375 C 1.925781 -5.414062 1.765625 -5.132812 1.671875 -4.75 L 0.984375 -4.75 L 0.984375 -6.109375 C 1.367188 -6.242188 1.765625 -6.34375 2.171875 -6.40625 C 2.578125 -6.476562 3.003906 -6.515625 3.453125 -6.515625 C 4.585938 -6.515625 5.414062 -6.300781 5.9375 -5.875 C 6.46875 -5.457031 6.734375 -4.796875 6.734375 -3.890625 Z M 4.625 -2 L 4.625 -3.265625 L 3.828125 -3.265625 C 3.429688 -3.265625 3.125 -3.15625 2.90625 -2.9375 C 2.695312 -2.726562 2.59375 -2.421875 2.59375 -2.015625 C 2.59375 -1.609375 2.671875 -1.304688 2.828125 -1.109375 C 2.984375 -0.910156 3.21875 -0.8125 3.53125 -0.8125 C 3.851562 -0.8125 4.113281 -0.921875 4.3125 -1.140625 C 4.519531 -1.359375 4.625 -1.644531 4.625 -2 Z "/>
</g>
<g id="glyph-0-11">
<path d="M 1.125 -8.140625 C 1.125 -8.460938 1.234375 -8.734375 1.453125 -8.953125 C 1.679688 -9.171875 1.953125 -9.28125 2.265625 -9.28125 C 2.585938 -9.28125 2.859375 -9.171875 3.078125 -8.953125 C 3.296875 -8.734375 3.40625 -8.460938 3.40625 -8.140625 C 3.40625 -7.828125 3.296875 -7.554688 3.078125 -7.328125 C 2.859375 -7.109375 2.585938 -7 2.265625 -7 C 1.953125 -7 1.679688 -7.109375 1.453125 -7.328125 C 1.234375 -7.546875 1.125 -7.816406 1.125 -8.140625 Z M 3.4375 -0.71875 L 4.34375 -0.71875 L 4.34375 0 L 0.421875 0 L 0.421875 -0.71875 L 1.3125 -0.71875 L 1.3125 -5.625 L 0.421875 -5.625 L 0.421875 -6.34375 L 3.4375 -6.34375 Z "/>
</g>
<g id="glyph-0-12">
<path d="M 4.296875 -4.046875 L 5.40625 -5.625 L 4.625 -5.625 L 4.625 -6.34375 L 7.09375 -6.34375 L 7.09375 -5.625 L 6.265625 -5.625 L 4.640625 -3.359375 L 6.53125 -0.71875 L 7.375 -0.71875 L 7.375 0 L 3.328125 0 L 3.328125 -0.71875 L 4.15625 -0.71875 L 2.953125 -2.390625 L 1.765625 -0.71875 L 2.609375 -0.71875 L 2.609375 0 L 0 0 L 0 -0.71875 L 0.90625 -0.71875 L 2.59375 -3.09375 L 0.765625 -5.625 L 0.0625 -5.625 L 0.0625 -6.34375 L 3.9375 -6.34375 L 3.9375 -5.625 L 3.15625 -5.625 Z "/>
</g>
</g>
</defs>
<g fill="rgb(88.627451%, 90.980392%, 94.117647%)" fill-opacity="1">
<use xlink:href="#glyph-0-0" x="30" y="31.476562"/>
<use xlink:href="#glyph-0-1" x="39" y="31.476562"/>
<use xlink:href="#glyph-0-2" x="47" y="31.476562"/>
<use xlink:href="#glyph-0-3" x="58" y="31.476562"/>
<use xlink:href="#glyph-0-4" x="66" y="31.476562"/>
<use xlink:href="#glyph-0-5" x="72" y="31.476562"/>
<use xlink:href="#glyph-0-1" x="76" y="31.476562"/>
<use xlink:href="#glyph-0-6" x="84" y="31.476562"/>
<use xlink:href="#glyph-0-5" x="89" y="31.476562"/>
<use xlink:href="#glyph-0-7" x="93" y="31.476562"/>
<use xlink:href="#glyph-0-8" x="99" y="31.476562"/>
<use xlink:href="#glyph-0-3" x="108" y="31.476562"/>
<use xlink:href="#glyph-0-5" x="116" y="31.476562"/>
<use xlink:href="#glyph-0-9" x="120" y="31.476562"/>
<use xlink:href="#glyph-0-10" x="134" y="31.476562"/>
<use xlink:href="#glyph-0-7" x="142" y="31.476562"/>
<use xlink:href="#glyph-0-4" x="148" y="31.476562"/>
<use xlink:href="#glyph-0-11" x="154" y="31.476562"/>
<use xlink:href="#glyph-0-12" x="159" y="31.476562"/>
</g>
</svg>
