<svg xmlns="http://www.w3.org/2000/svg" xmlns:xlink="http://www.w3.org/1999/xlink" width="854" height="480" viewBox="0 0 854 480"><defs><g><g id="glyph-0-0"><path d="M 0.9375 -0.421875 L 0.9375 -2.546875 L 1.703125 -2.546875 C 1.816406 -1.878906 2.085938 -1.378906 2.515625 -1.046875 C 2.941406 -0.710938 3.535156 -0.546875 4.296875 -0.546875 C 4.910156 -0.546875 5.378906 -0.660156 5.703125 -0.890625 C 6.023438 -1.128906 6.1875 -1.476562 6.1875 -1.9375 C 6.1875 -2.289062 6.078125 -2.566406 5.859375 -2.765625 C 5.640625 -2.960938 5.191406 -3.148438 4.515625 -3.328125 L 3.171875 -3.65625 C 2.304688 -3.875 1.695312 -4.179688 1.34375 -4.578125 C 0.988281 -4.972656 0.8125 -5.535156 0.8125 -6.265625 C 0.8125 -7.148438 1.101562 -7.835938 1.6875 -8.328125 C 2.269531 -8.816406 3.09375 -9.0625 4.15625 -9.0625 C 4.675781 -9.0625 5.21875 -9.019531 5.78125 -8.9375 C 6.34375 -8.851562 6.925781 -8.722656 7.53125 -8.546875 L 7.53125 -6.578125 L 6.765625 -6.578125 C 6.648438 -7.191406 6.394531 -7.640625 6 -7.921875 C 5.613281 -8.203125 5.0625 -8.34375 4.34375 -8.34375 C 3.757812 -8.34375 3.316406 -8.238281 3.015625 -8.03125 C 2.710938 -7.832031 2.5625 -7.53125 2.5625 -7.125 C 2.5625 -6.75 2.664062 -6.460938 2.875 -6.265625 C 3.082031 -6.078125 3.585938 -5.882812 4.390625 -5.6875 L 5.734375 -5.359375 C 6.554688 -5.148438 7.15625 -4.828125 7.53125 -4.390625 C 7.90625 -3.953125 8.09375 -3.347656 8.09375 -2.578125 C 8.09375 -1.679688 7.78125 -1 7.15625 -0.53125 C 6.539062 -0.0625 5.628906 0.171875 4.421875 0.171875 C 3.835938 0.171875 3.257812 0.117188 2.6875 0.015625 C 2.113281 -0.078125 1.53125 -0.222656 0.9375 -0.421875 Z"/></g><g id="glyph-0-1"><path d="M 7.5625 -6.34375 L 7.5625 -0.71875 L 8.46875 -0.71875 L 8.46875 0 L 5.453125 0 L 5.453125 -0.890625 C 5.203125 -0.515625 4.910156 -0.242188 4.578125 -0.078125 C 4.253906 0.0859375 3.84375 0.171875 3.34375 0.171875 C 2.632812 0.171875 2.097656 -0.0351562 1.734375 -0.453125 C 1.367188 -0.867188 1.1875 -1.488281 1.1875 -2.3125 L 1.1875 -5.625 L 0.28125 -5.625 L 0.28125 -6.34375 L 3.296875 -6.34375 L 3.296875 -2.640625 C 3.296875 -1.847656 3.359375 -1.34375 3.484375 -1.125 C 3.617188 -0.914062 3.863281 -0.8125 4.21875 -0.8125 C 4.644531 -0.8125 4.957031 -0.96875 5.15625 -1.28125 C 5.351562 -1.601562 5.453125 -2.101562 5.453125 -2.78125 L 5.453125 -5.625 L 4.671875 -5.625 L 4.671875 -6.34375 Z"/></g><g id="glyph-0-2"><path d="M 7.421875 -5.296875 C 7.710938 -5.722656 8.03125 -6.03125 8.375 -6.21875 C 8.71875 -6.414062 9.113281 -6.515625 9.5625 -6.515625 C 10.289062 -6.515625 10.832031 -6.304688 11.1875 -5.890625 C 11.550781 -5.484375 11.734375 -4.863281 11.734375 -4.03125 L 11.734375 -0.71875 L 12.640625 -0.71875 L 12.640625 0 L 8.875 0 L 8.875 -0.71875 L 9.625 -0.71875 L 9.625 -3.71875 C 9.625 -4.507812 9.5625 -5.007812 9.4375 -5.21875 C 9.320312 -5.425781 9.097656 -5.53125 8.765625 -5.53125 C 8.390625 -5.53125 8.097656 -5.382812 7.890625 -5.09375 C 7.691406 -4.800781 7.59375 -4.390625 7.59375 -3.859375 L 7.59375 -0.71875 L 8.34375 -0.71875 L 8.34375 0 L 4.71875 0 L 4.71875 -0.71875 L 5.484375 -0.71875 L 5.484375 -3.71875 C 5.484375 -4.507812 5.421875 -5.007812 5.296875 -5.21875 C 5.171875 -5.425781 4.945312 -5.53125 4.625 -5.53125 C 4.238281 -5.53125 3.941406 -5.382812 3.734375 -5.09375 C 3.535156 -4.800781 3.4375 -4.390625 3.4375 -3.859375 L 3.4375 -0.71875 L 4.1875 -0.71875 L 4.1875 0 L 0.421875 0 L 0.421875 -0.71875 L 1.3125 -0.71875 L 1.3125 -5.625 L 0.421875 -5.625 L 0.421875 -6.34375 L 3.4375 -6.34375 L 3.4375 -5.453125 C 3.675781 -5.816406 3.953125 -6.082031 4.265625 -6.25 C 4.585938 -6.425781 4.96875 -6.515625 5.40625 -6.515625 C 5.925781 -6.515625 6.347656 -6.414062 6.671875 -6.21875 C 6.992188 -6.019531 7.242188 -5.710938 7.421875 -5.296875 Z"/></g><g id="glyph-0-3"><path d="M 6.734375 -3.890625 L 6.734375 -0.71875 L 7.640625 -0.71875 L 7.640625 0 L 4.625 0 L 4.625 -0.8125 C 4.34375 -0.46875 4.03125 -0.21875 3.6875 -0.0625 C 3.34375 0.09375 2.953125 0.171875 2.515625 0.171875 C 1.867188 0.171875 1.367188 0 1.015625 -0.34375 C 0.671875 -0.695312 0.5 -1.195312 0.5 -1.84375 C 0.5 -2.550781 0.75 -3.082031 1.25 -3.4375 C 1.75 -3.789062 2.503906 -3.96875 3.515625 -3.96875 L 4.625 -3.96875 L 4.625 -4.34375 C 4.625 -4.863281 4.5 -5.242188 4.25 -5.484375 C 4.007812 -5.734375 3.632812 -5.859375 3.125 -5.859375 C 2.707031 -5.859375 2.382812 -5.769531 2.15625 -5.59375 C 1.925781 -5.414062 1.765625 -5.132812 1.671875 -4.75 L 0.984375 -4.75 L 0.984375 -6.109375 C 1.367188 -6.242188 1.765625 -6.34375 2.171875 -6.40625 C 2.578125 -6.476562 3.003906 -6.515625 3.453125 -6.515625 C 4.585938 -6.515625 5.414062 -6.300781 5.9375 -5.875 C 6.46875 -5.457031 6.734375 -4.796875 6.734375 -3.890625 Z M 4.625 -2 L 4.625 -3.265625 L 3.828125 -3.265625 C 3.429688 -3.265625 3.125 -3.15625 2.90625 -2.9375 C 2.695312 -2.726562 2.59375 -2.421875 2.59375 -2.015625 C 2.59375 -1.609375 2.671875 -1.304688 2.828125 -1.109375 C 2.984375 -0.910156 3.21875 -0.8125 3.53125 -0.8125 C 3.851562 -0.8125 4.113281 -0.921875 4.3125 -1.140625 C 4.519531 -1.359375 4.625 -1.644531 4.625 -2 Z"/></g><g id="glyph-0-4"><path d="M 6.5625 -6.40625 L 6.5625 -4.515625 L 5.890625 -4.515625 C 5.867188 -4.859375 5.773438 -5.113281 5.609375 -5.28125 C 5.453125 -5.445312 5.222656 -5.53125 4.921875 -5.53125 C 4.460938 -5.53125 4.097656 -5.328125 3.828125 -4.921875 C 3.566406 -4.515625 3.4375 -3.953125 3.4375 -3.234375 L 3.4375 -0.71875 L 4.578125 -0.71875 L 4.578125 0 L 0.421875 0 L 0.421875 -0.71875 L 1.3125 -0.71875 L 1.3125 -5.625 L 0.359375 -5.625 L 0.359375 -6.34375 L 3.4375 -6.34375 L 3.4375 -5.21875 C 3.632812 -5.65625 3.90625 -5.976562 4.25 -6.1875 C 4.59375 -6.40625 5.007812 -6.515625 5.5 -6.515625 C 5.625 -6.515625 5.773438 -6.503906 5.953125 -6.484375 C 6.128906 -6.472656 6.332031 -6.445312 6.5625 -6.40625 Z"/></g><g id="glyph-0-5"><path d="M 3.8125 1.4375 C 3.625 1.894531 3.394531 2.222656 3.125 2.421875 C 2.851562 2.617188 2.488281 2.71875 2.03125 2.71875 C 1.832031 2.71875 1.613281 2.691406 1.375 2.640625 C 1.132812 2.597656 0.875 2.535156 0.59375 2.453125 L 0.59375 1.140625 L 1.265625 1.140625 C 1.273438 1.441406 1.347656 1.664062 1.484375 1.8125 C 1.617188 1.96875 1.820312 2.046875 2.09375 2.046875 C 2.34375 2.046875 2.546875 1.972656 2.703125 1.828125 C 2.867188 1.679688 3.03125 1.414062 3.1875 1.03125 L 3.28125 0.8125 L 0.53125 -5.625 L -0.15625 -5.625 L -0.15625 -6.34375 L 3.5 -6.34375 L 3.5 -5.625 L 2.734375 -5.625 L 4.34375 -1.875 L 5.859375 -5.625 L 5.015625 -5.625 L 5.015625 -6.34375 L 7.390625 -6.34375 L 7.390625 -5.625 L 6.625 -5.625 Z"/></g></g></defs><g fill="#E2E8F0" fill-opacity="1"><use x="30" y="31.477" xlink:href="#glyph-0-0"/><use x="39" y="31.477" xlink:href="#glyph-0-1"/><use x="48" y="31.477" xlink:href="#glyph-0-2"/><use x="61" y="31.477" xlink:href="#glyph-0-2"/><use x="74" y="31.477" xlink:href="#glyph-0-3"/><use x="82" y="31.477" xlink:href="#glyph-0-4"/><use x="88" y="31.477" xlink:href="#glyph-0-5"/></g></svg>