<?xml version="1.0" encoding="UTF-8"?>
<svg xmlns="http://www.w3.org/2000/svg" xmlns:xlink="http://www.w3.org/1999/xlink" width="854" height="480" viewBox="0 0 854 480">
<defs>
<g>
<g id="glyph-0-0">
<path d="M 8.28125 -2.3125 C 8.0625 -1.476562 7.675781 -0.859375 7.125 -0.453125 C 6.570312 -0.046875 5.828125 0.15625 4.890625 0.15625 C 3.523438 0.15625 2.445312 -0.21875 1.65625 -0.96875 C 0.863281 -1.726562 0.46875 -2.753906 0.46875 -4.046875 C 0.46875 -5.335938 0.863281 -6.359375 1.65625 -7.109375 C 2.445312 -7.867188 3.523438 -8.25 4.890625 -8.25 C 5.378906 -8.25 5.882812 -8.1875 6.40625 -8.0625 C 6.925781 -7.945312 7.476562 -7.773438 8.0625 -7.546875 L 8.0625 -5.5625 L 7.359375 -5.5625 C 7.222656 -6.238281 6.96875 -6.742188 6.59375 -7.078125 C 6.21875 -7.421875 5.726562 -7.59375 5.125 -7.59375 C 4.332031 -7.59375 3.742188 -7.300781 3.359375 -6.71875 C 2.972656 -6.132812 2.78125 -5.242188 2.78125 -4.046875 C 2.78125 -2.835938 2.972656 -1.941406 3.359375 -1.359375 C 3.742188 -0.785156 4.332031 -0.5 5.125 -0.5 C 5.664062 -0.5 6.109375 -0.648438 6.453125 -0.953125 C 6.796875 -1.253906 7.046875 -1.707031 7.203125 -2.3125 Z "/>
</g>
<g id="glyph-0-1">
<path d="M 0.375 0 L 0.375 -0.65625 L 1.203125 -0.65625 L 1.203125 -7.796875 L 0.34375 -7.796875 L 0.34375 -8.4375 L 3.125 -8.4375 L 3.125 -4.953125 C 3.351562 -5.296875 3.613281 -5.539062 3.90625 -5.6875 C 4.207031 -5.84375 4.582031 -5.921875 5.03125 -5.921875 C 5.675781 -5.921875 6.164062 -5.726562 6.5 -5.34375 C 6.832031 -4.96875 7 -4.410156 7 -3.671875 L 7 -0.65625 L 7.828125 -0.65625 L 7.828125 0 L 4.375 0 L 4.375 -0.65625 L 5.078125 -0.65625 L 5.078125 -3.71875 C 5.078125 -4.207031 5.015625 -4.546875 4.890625 -4.734375 C 4.765625 -4.921875 4.546875 -5.015625 4.234375 -5.015625 C 3.847656 -5.015625 3.566406 -4.875 3.390625 -4.59375 C 3.210938 -4.3125 3.125 -3.863281 3.125 -3.25 L 3.125 -0.65625 L 3.828125 -0.65625 L 3.828125 0 Z "/>
</g>
<g id="glyph-0-2">
<path d="M 6.125 -3.546875 L 6.125 -0.65625 L 6.9375 -0.65625 L 6.9375 0 L 4.203125 0 L 4.203125 -0.734375 C 3.941406 -0.429688 3.65625 -0.207031 3.34375 -0.0625 C 3.039062 0.0820312 2.691406 0.15625 2.296875 0.15625 C 1.703125 0.15625 1.242188 0 0.921875 -0.3125 C 0.609375 -0.632812 0.453125 -1.085938 0.453125 -1.671875 C 0.453125 -2.316406 0.675781 -2.800781 1.125 -3.125 C 1.582031 -3.445312 2.269531 -3.609375 3.1875 -3.609375 L 4.203125 -3.609375 L 4.203125 -3.953125 C 4.203125 -4.421875 4.085938 -4.765625 3.859375 -4.984375 C 3.640625 -5.210938 3.300781 -5.328125 2.84375 -5.328125 C 2.457031 -5.328125 2.160156 -5.242188 1.953125 -5.078125 C 1.742188 -4.921875 1.597656 -4.664062 1.515625 -4.3125 L 0.90625 -4.3125 L 0.90625 -5.5625 C 1.25 -5.675781 1.601562 -5.765625 1.96875 -5.828125 C 2.332031 -5.890625 2.722656 -5.921875 3.140625 -5.921875 C 4.171875 -5.921875 4.925781 -5.726562 5.40625 -5.34375 C 5.882812 -4.96875 6.125 -4.367188 6.125 -3.546875 Z M 4.203125 -1.8125 L 4.203125 -2.96875 L 3.484375 -2.96875 C 3.117188 -2.96875 2.835938 -2.867188 2.640625 -2.671875 C 2.453125 -2.472656 2.359375 -2.191406 2.359375 -1.828125 C 2.359375 -1.460938 2.425781 -1.191406 2.5625 -1.015625 C 2.707031 -0.835938 2.925781 -0.75 3.21875 -0.75 C 3.507812 -0.75 3.742188 -0.84375 3.921875 -1.03125 C 4.109375 -1.226562 4.203125 -1.488281 4.203125 -1.8125 Z "/>
</g>
<g id="glyph-0-3">
<path d="M 5.96875 -5.828125 L 5.96875 -4.109375 L 5.359375 -4.109375 C 5.335938 -4.421875 5.253906 -4.648438 5.109375 -4.796875 C 4.960938 -4.941406 4.75 -5.015625 4.46875 -5.015625 C 4.050781 -5.015625 3.722656 -4.832031 3.484375 -4.46875 C 3.242188 -4.101562 3.125 -3.59375 3.125 -2.9375 L 3.125 -0.65625 L 4.171875 -0.65625 L 4.171875 0 L 0.375 0 L 0.375 -0.65625 L 1.203125 -0.65625 L 1.203125 -5.109375 L 0.3125 -5.109375 L 0.3125 -5.765625 L 3.125 -5.765625 L 3.125 -4.734375 C 3.3125 -5.140625 3.554688 -5.4375 3.859375 -5.625 C 4.171875 -5.820312 4.550781 -5.921875 5 -5.921875 C 5.113281 -5.921875 5.25 -5.910156 5.40625 -5.890625 C 5.570312 -5.878906 5.757812 -5.859375 5.96875 -5.828125 Z "/>
</g>
<g id="glyph-0-4">
<path d="M 6.265625 -1.796875 C 6.128906 -1.140625 5.847656 -0.648438 5.421875 -0.328125 C 4.992188 -0.00390625 4.414062 0.15625 3.6875 0.15625 C 2.65625 0.15625 1.859375 -0.109375 1.296875 -0.640625 C 0.734375 -1.171875 0.453125 -1.921875 0.453125 -2.890625 C 0.453125 -3.835938 0.726562 -4.578125 1.28125 -5.109375 C 1.84375 -5.648438 2.617188 -5.921875 3.609375 -5.921875 C 4.015625 -5.921875 4.421875 -5.882812 4.828125 -5.8125 C 5.234375 -5.738281 5.648438 -5.625 6.078125 -5.46875 L 6.078125 -3.875 L 5.46875 -3.875 C 5.40625 -4.351562 5.257812 -4.710938 5.03125 -4.953125 C 4.8125 -5.191406 4.492188 -5.3125 4.078125 -5.3125 C 3.546875 -5.3125 3.164062 -5.128906 2.9375 -4.765625 C 2.707031 -4.398438 2.59375 -3.773438 2.59375 -2.890625 C 2.59375 -2.015625 2.703125 -1.390625 2.921875 -1.015625 C 3.148438 -0.640625 3.515625 -0.453125 4.015625 -0.453125 C 4.398438 -0.453125 4.707031 -0.566406 4.9375 -0.796875 C 5.164062 -1.035156 5.304688 -1.367188 5.359375 -1.796875 Z "/>
</g>
<g id="glyph-0-5">
<path d="M 1.09375 -5.109375 L 0.265625 -5.109375 L 0.265625 -5.765625 L 1.09375 -5.765625 L 1.09375 -7.5625 L 3.015625 -7.5625 L 3.015625 -5.765625 L 4.625 -5.765625 L 4.625 -5.109375 L 3.015625 -5.109375 L 3.015625 -1.578125 C 3.015625 -1.078125 3.054688 -0.765625 3.140625 -0.640625 C 3.222656 -0.515625 3.367188 -0.453125 3.578125 -0.453125 C 3.804688 -0.453125 3.976562 -0.53125 4.09375 -0.6875 C 4.207031 -0.84375 4.265625 -1.082031 4.265625 -1.40625 L 5.078125 -1.40625 C 5.046875 -0.832031 4.882812 -0.425781 4.59375 -0.1875 C 4.3125 0.0390625 3.828125 0.15625 3.140625 0.15625 C 2.347656 0.15625 1.804688 0.0351562 1.515625 -0.203125 C 1.234375 -0.453125 1.09375 -0.910156 1.09375 -1.578125 Z "/>
</g>
<g id="glyph-0-6">
<path d="M 4.453125 -3.25 C 4.453125 -4.007812 4.378906 -4.539062 4.234375 -4.84375 C 4.097656 -5.15625 3.859375 -5.3125 3.515625 -5.3125 C 3.191406 -5.3125 2.957031 -5.160156 2.8125 -4.859375 C 2.664062 -4.554688 2.59375 -4.054688 2.59375 -3.359375 L 2.59375 -3.25 Z M 6.5625 -2.609375 L 2.59375 -2.609375 L 2.59375 -2.5625 C 2.59375 -1.820312 2.703125 -1.285156 2.921875 -0.953125 C 3.148438 -0.617188 3.515625 -0.453125 4.015625 -0.453125 C 4.429688 -0.453125 4.765625 -0.5625 5.015625 -0.78125 C 5.273438 -1.007812 5.441406 -1.332031 5.515625 -1.75 L 6.421875 -1.75 C 6.265625 -1.09375 5.953125 -0.609375 5.484375 -0.296875 C 5.023438 0.00390625 4.378906 0.15625 3.546875 0.15625 C 2.554688 0.15625 1.789062 -0.101562 1.25 -0.625 C 0.71875 -1.15625 0.453125 -1.910156 0.453125 -2.890625 C 0.453125 -3.835938 0.722656 -4.578125 1.265625 -5.109375 C 1.816406 -5.648438 2.578125 -5.921875 3.546875 -5.921875 C 4.503906 -5.921875 5.238281 -5.640625 5.75 -5.078125 C 6.257812 -4.515625 6.53125 -3.691406 6.5625 -2.609375 Z "/>
</g>
<g id="glyph-0-7">
<path d="M 1.015625 -7.40625 C 1.015625 -7.695312 1.113281 -7.941406 1.3125 -8.140625 C 1.519531 -8.335938 1.769531 -8.4375 2.0625 -8.4375 C 2.351562 -8.4375 2.597656 -8.335938 2.796875 -8.140625 C 2.992188 -7.941406 3.09375 -7.695312 3.09375 -7.40625 C 3.09375 -7.113281 2.992188 -6.867188 2.796875 -6.671875 C 2.597656 -6.472656 2.351562 -6.375 2.0625 -6.375 C 1.769531 -6.375 1.519531 -6.472656 1.3125 -6.671875 C 1.113281 -6.867188 1.015625 -7.113281 1.015625 -7.40625 Z M 3.125 -0.65625 L 3.9375 -0.65625 L 3.9375 0 L 0.375 0 L 0.375 -0.65625 L 1.203125 -0.65625 L 1.203125 -5.109375 L 0.375 -5.109375 L 0.375 -5.765625 L 3.125 -5.765625 Z "/>
</g>
<g id="glyph-0-8">
<path d="M 0.515625 -0.171875 L 0.515625 -1.78125 L 1.140625 -1.78125 C 1.179688 -1.351562 1.335938 -1.023438 1.609375 -0.796875 C 1.878906 -0.566406 2.25 -0.453125 2.71875 -0.453125 C 3.113281 -0.453125 3.414062 -0.519531 3.625 -0.65625 C 3.832031 -0.789062 3.9375 -0.988281 3.9375 -1.25 C 3.9375 -1.476562 3.867188 -1.65625 3.734375 -1.78125 C 3.597656 -1.90625 3.34375 -2.015625 2.96875 -2.109375 L 2.171875 -2.3125 C 1.578125 -2.457031 1.144531 -2.664062 0.875 -2.9375 C 0.613281 -3.21875 0.484375 -3.59375 0.484375 -4.0625 C 0.484375 -4.6875 0.695312 -5.148438 1.125 -5.453125 C 1.5625 -5.765625 2.234375 -5.921875 3.140625 -5.921875 C 3.472656 -5.921875 3.832031 -5.890625 4.21875 -5.828125 C 4.601562 -5.773438 5.03125 -5.691406 5.5 -5.578125 L 5.5 -4.125 L 4.890625 -4.125 C 4.859375 -4.519531 4.71875 -4.816406 4.46875 -5.015625 C 4.21875 -5.210938 3.863281 -5.3125 3.40625 -5.3125 C 3.007812 -5.3125 2.710938 -5.25 2.515625 -5.125 C 2.316406 -5 2.21875 -4.816406 2.21875 -4.578125 C 2.21875 -4.378906 2.273438 -4.222656 2.390625 -4.109375 C 2.503906 -4.003906 2.710938 -3.910156 3.015625 -3.828125 L 3.796875 -3.640625 C 4.554688 -3.441406 5.078125 -3.203125 5.359375 -2.921875 C 5.648438 -2.640625 5.796875 -2.25 5.796875 -1.75 C 5.796875 -1.09375 5.5625 -0.609375 5.09375 -0.296875 C 4.632812 0.00390625 3.914062 0.15625 2.9375 0.15625 C 2.570312 0.15625 2.1875 0.128906 1.78125 0.078125 C 1.382812 0.0234375 0.960938 -0.0546875 0.515625 -0.171875 Z "/>
</g>
<g id="glyph-0-9">
</g>
<g id="glyph-0-10">
<path d="M 0.515625 0 L 0.515625 -0.65625 L 1.5625 -0.65625 L 1.5625 -7.4375 L 0.515625 -7.4375 L 0.515625 -8.09375 L 5.125 -8.09375 C 6.03125 -8.09375 6.75 -7.878906 7.28125 -7.453125 C 7.8125 -7.023438 8.078125 -6.453125 8.078125 -5.734375 C 8.078125 -5.015625 7.8125 -4.4375 7.28125 -4 C 6.75 -3.570312 6.03125 -3.359375 5.125 -3.359375 L 3.640625 -3.359375 L 3.640625 -0.65625 L 4.953125 -0.65625 L 4.953125 0 Z M 3.640625 -4.015625 L 4.25 -4.015625 C 4.71875 -4.015625 5.09375 -4.171875 5.375 -4.484375 C 5.65625 -4.796875 5.796875 -5.210938 5.796875 -5.734375 C 5.796875 -6.253906 5.65625 -6.664062 5.375 -6.96875 C 5.101562 -7.28125 4.726562 -7.4375 4.25 -7.4375 L 3.640625 -7.4375 Z "/>
</g>
<g id="glyph-0-11">
<path d="M 3.703125 -0.453125 C 4.109375 -0.453125 4.394531 -0.625 4.5625 -0.96875 C 4.726562 -1.320312 4.8125 -1.960938 4.8125 -2.890625 C 4.8125 -3.816406 4.726562 -4.453125 4.5625 -4.796875 C 4.40625 -5.140625 4.117188 -5.3125 3.703125 -5.3125 C 3.296875 -5.3125 3.007812 -5.132812 2.84375 -4.78125 C 2.675781 -4.4375 2.59375 -3.804688 2.59375 -2.890625 C 2.59375 -1.972656 2.675781 -1.335938 2.84375 -0.984375 C 3.007812 -0.628906 3.296875 -0.453125 3.703125 -0.453125 Z M 3.703125 0.15625 C 2.691406 0.15625 1.894531 -0.113281 1.3125 -0.65625 C 0.738281 -1.195312 0.453125 -1.941406 0.453125 -2.890625 C 0.453125 -3.835938 0.738281 -4.578125 1.3125 -5.109375 C 1.894531 -5.648438 2.691406 -5.921875 3.703125 -5.921875 C 4.722656 -5.921875 5.519531 -5.648438 6.09375 -5.109375 C 6.675781 -4.578125 6.96875 -3.835938 6.96875 -2.890625 C 6.96875 -1.941406 6.675781 -1.195312 6.09375 -0.65625 C 5.519531 -0.113281 4.722656 0.15625 3.703125 0.15625 Z "/>
</g>
<g id="glyph-0-12">
<path d="M 3.125 -0.65625 L 3.9375 -0.65625 L 3.9375 0 L 0.375 0 L 0.375 -0.65625 L 1.203125 -0.65625 L 1.203125 -7.796875 L 0.375 -7.796875 L 0.375 -8.4375 L 3.125 -8.4375 Z "/>
</g>
<g id="glyph-0-13">
<path d="M 3.46875 1.296875 C 3.289062 1.722656 3.078125 2.023438 2.828125 2.203125 C 2.585938 2.378906 2.257812 2.46875 1.84375 2.46875 C 1.664062 2.46875 1.46875 2.445312 1.25 2.40625 C 1.03125 2.363281 0.796875 2.304688 0.546875 2.234375 L 0.546875 1.03125 L 1.15625 1.03125 C 1.164062 1.3125 1.226562 1.519531 1.34375 1.65625 C 1.46875 1.789062 1.65625 1.859375 1.90625 1.859375 C 2.132812 1.859375 2.320312 1.789062 2.46875 1.65625 C 2.613281 1.53125 2.757812 1.289062 2.90625 0.9375 L 2.984375 0.734375 L 0.484375 -5.109375 L -0.140625 -5.109375 L -0.140625 -5.765625 L 3.171875 -5.765625 L 3.171875 -5.109375 L 2.484375 -5.109375 L 3.953125 -1.703125 L 5.328125 -5.109375 L 4.5625 -5.109375 L 4.5625 -5.765625 L 6.71875 -5.765625 L 6.71875 -5.109375 L 6.015625 -5.109375 Z "/>
</g>
<g id="glyph-0-14">
<path d="M 0.375 0 L 0.375 -0.65625 L 1.203125 -0.65625 L 1.203125 -5.109375 L 0.375 -5.109375 L 0.375 -5.765625 L 3.125 -5.765625 L 3.125 -4.953125 C 3.351562 -5.296875 3.613281 -5.539062 3.90625 -5.6875 C 4.207031 -5.84375 4.582031 -5.921875 5.03125 -5.921875 C 5.675781 -5.921875 6.164062 -5.726562 6.5 -5.34375 C 6.832031 -4.96875 7 -4.410156 7 -3.671875 L 7 -0.65625 L 7.828125 -0.65625 L 7.828125 0 L 4.375 0 L 4.375 -0.65625 L 5.078125 -0.65625 L 5.078125 -3.71875 C 5.078125 -4.207031 5.015625 -4.546875 4.890625 -4.734375 C 4.765625 -4.921875 4.546875 -5.015625 4.234375 -5.015625 C 3.847656 -5.015625 3.566406 -4.875 3.390625 -4.59375 C 3.210938 -4.3125 3.125 -3.863281 3.125 -3.25 L 3.125 -0.65625 L 3.828125 -0.65625 L 3.828125 0 Z "/>
</g>
<g id="glyph-0-15">
<path d="M 6.75 -4.828125 C 7.007812 -5.203125 7.296875 -5.476562 7.609375 -5.65625 C 7.921875 -5.832031 8.285156 -5.921875 8.703125 -5.921875 C 9.359375 -5.921875 9.847656 -5.734375 10.171875 -5.359375 C 10.503906 -4.984375 10.671875 -4.421875 10.671875 -3.671875 L 10.671875 -0.65625 L 11.5 -0.65625 L 11.5 0 L 8.0625 0 L 8.0625 -0.65625 L 8.75 -0.65625 L 8.75 -3.375 C 8.75 -4.09375 8.691406 -4.546875 8.578125 -4.734375 C 8.472656 -4.921875 8.269531 -5.015625 7.96875 -5.015625 C 7.632812 -5.015625 7.375 -4.882812 7.1875 -4.625 C 7 -4.363281 6.90625 -3.992188 6.90625 -3.515625 L 6.90625 -0.65625 L 7.59375 -0.65625 L 7.59375 0 L 4.296875 0 L 4.296875 -0.65625 L 4.984375 -0.65625 L 4.984375 -3.375 C 4.984375 -4.09375 4.925781 -4.546875 4.8125 -4.734375 C 4.695312 -4.921875 4.492188 -5.015625 4.203125 -5.015625 C 3.859375 -5.015625 3.59375 -4.882812 3.40625 -4.625 C 3.21875 -4.363281 3.125 -3.992188 3.125 -3.515625 L 3.125 -0.65625 L 3.8125 -0.65625 L 3.8125 0 L 0.375 0 L 0.375 -0.65625 L 1.203125 -0.65625 L 1.203125 -5.109375 L 0.375 -5.109375 L 0.375 -5.765625 L 3.125 -5.765625 L 3.125 -4.953125 C 3.34375 -5.285156 3.597656 -5.53125 3.890625 -5.6875 C 4.179688 -5.84375 4.523438 -5.921875 4.921875 -5.921875 C 5.390625 -5.921875 5.769531 -5.832031 6.0625 -5.65625 C 6.351562 -5.476562 6.582031 -5.203125 6.75 -4.828125 Z "/>
</g>
</g>
</defs>
<g fill="rgb(88.627451%, 90.980392%, 94.117647%)" fill-opacity="1">
<use xlink:href="#glyph-0-0" x="30" y="30.432617"/>
<use xlink:href="#glyph-0-1" x="39" y="30.432617"/>
<use xlink:href="#glyph-0-2" x="47" y="30.432617"/>
<use xlink:href="#glyph-0-3" x="54" y="30.432617"/>
<use xlink:href="#glyph-0-2" x="60" y="30.432617"/>
<use xlink:href="#glyph-0-4" x="67" y="30.432617"/>
<use xlink:href="#glyph-0-5" x="74" y="30.432617"/>
<use xlink:href="#glyph-0-6" x="79" y="30.432617"/>
<use xlink:href="#glyph-0-3" x="86" y="30.432617"/>
<use xlink:href="#glyph-0-7" x="92" y="30.432617"/>
<use xlink:href="#glyph-0-8" x="96" y="30.432617"/>
<use xlink:href="#glyph-0-5" x="102" y="30.432617"/>
<use xlink:href="#glyph-0-7" x="107" y="30.432617"/>
<use xlink:href="#glyph-0-4" x="111" y="30.432617"/>
<use xlink:href="#glyph-0-9" x="118" y="30.432617"/>
<use xlink:href="#glyph-0-10" x="122" y="30.432617"/>
<use xlink:href="#glyph-0-11" x="130" y="30.432617"/>
<use xlink:href="#glyph-0-12" x="137" y="30.432617"/>
<use xlink:href="#glyph-0-13" x="141" y="30.432617"/>
<use xlink:href="#glyph-0-14" x="147" y="30.432617"/>
<use xlink:href="#glyph-0-11" x="155" y="30.432617"/>
<use xlink:href="#glyph-0-15" x="162" y="30.432617"/>
<use xlink:href="#glyph-0-7" x="174" y="30.432617"/>
<use xlink:href="#glyph-0-2" x="178" y="30.432617"/>
<use xlink:href="#glyph-0-12" x="185" y="30.432617"/>
</g>
</svg>
