<svg xmlns="http://www.w3.org/2000/svg" xmlns:xlink="http://www.w3.org/1999/xlink" width="854" height="480" viewBox="0 0 854 480"><defs><g><g id="glyph-0-0"><path d="M 0.453125 0 L 0.453125 -0.4375 L 1.234375 -0.4375 L 1.234375 -5.640625 L 0.453125 -5.640625 L 0.453125 -6.078125 L 5.421875 -6.078125 L 5.421875 -4.71875 L 4.921875 -4.71875 L 4.921875 -5.578125 L 2.0625 -5.578125 L 2.0625 -3.53125 L 4.125 -3.53125 L 4.125 -4.296875 L 4.625 -4.296875 L 4.625 -2.28125 L 4.125 -2.28125 L 4.125 -3.046875 L 2.0625 -3.046875 L 2.0625 -0.4375 L 3.03125 -0.4375 L 3.03125 0 Z"/></g><g id="glyph-0-1"><path d="M 2.5 -0.28125 C 2.90625 -0.28125 3.207031 -0.4375 3.40625 -0.75 C 3.613281 -1.070312 3.71875 -1.539062 3.71875 -2.15625 C 3.71875 -2.78125 3.613281 -3.25 3.40625 -3.5625 C 3.207031 -3.875 2.90625 -4.03125 2.5 -4.03125 C 2.101562 -4.03125 1.800781 -3.875 1.59375 -3.5625 C 1.394531 -3.25 1.296875 -2.78125 1.296875 -2.15625 C 1.296875 -1.539062 1.394531 -1.070312 1.59375 -0.75 C 1.800781 -0.4375 2.101562 -0.28125 2.5 -0.28125 Z M 2.5 0.125 C 1.875 0.125 1.367188 -0.0820312 0.984375 -0.5 C 0.609375 -0.914062 0.421875 -1.46875 0.421875 -2.15625 C 0.421875 -2.851562 0.609375 -3.40625 0.984375 -3.8125 C 1.367188 -4.226562 1.875 -4.4375 2.5 -4.4375 C 3.132812 -4.4375 3.640625 -4.226562 4.015625 -3.8125 C 4.398438 -3.40625 4.59375 -2.851562 4.59375 -2.15625 C 4.59375 -1.46875 4.398438 -0.914062 4.015625 -0.5 C 3.640625 -0.0820312 3.132812 0.125 2.5 0.125 Z"/></g><g id="glyph-0-2"><path d="M 3.984375 -4.328125 L 3.984375 -3.25 L 3.546875 -3.25 C 3.535156 -3.46875 3.476562 -3.628906 3.375 -3.734375 C 3.269531 -3.835938 3.113281 -3.890625 2.90625 -3.890625 C 2.539062 -3.890625 2.257812 -3.757812 2.0625 -3.5 C 1.863281 -3.25 1.765625 -2.882812 1.765625 -2.40625 L 1.765625 -0.4375 L 2.625 -0.4375 L 2.625 0 L 0.34375 0 L 0.34375 -0.4375 L 1.015625 -0.4375 L 1.015625 -3.890625 L 0.296875 -3.890625 L 0.296875 -4.328125 L 1.765625 -4.328125 L 1.765625 -3.546875 C 1.910156 -3.847656 2.097656 -4.070312 2.328125 -4.21875 C 2.554688 -4.363281 2.835938 -4.4375 3.171875 -4.4375 C 3.296875 -4.4375 3.421875 -4.425781 3.546875 -4.40625 C 3.679688 -4.394531 3.828125 -4.367188 3.984375 -4.328125 Z"/></g><g id="glyph-0-3"><path d="M 4.3125 -3.484375 C 4.457031 -3.796875 4.640625 -4.03125 4.859375 -4.1875 C 5.085938 -4.351562 5.347656 -4.4375 5.640625 -4.4375 C 6.097656 -4.4375 6.4375 -4.296875 6.65625 -4.015625 C 6.882812 -3.734375 7 -3.3125 7 -2.75 L 7 -0.4375 L 7.671875 -0.4375 L 7.671875 0 L 5.59375 0 L 5.59375 -0.4375 L 6.25 -0.4375 L 6.25 -2.65625 C 6.25 -3.101562 6.179688 -3.421875 6.046875 -3.609375 C 5.921875 -3.796875 5.707031 -3.890625 5.40625 -3.890625 C 5.070312 -3.890625 4.816406 -3.757812 4.640625 -3.5 C 4.460938 -3.25 4.375 -2.882812 4.375 -2.40625 L 4.375 -0.4375 L 5.03125 -0.4375 L 5.03125 0 L 2.984375 0 L 2.984375 -0.4375 L 3.625 -0.4375 L 3.625 -2.6875 C 3.625 -3.125 3.554688 -3.429688 3.421875 -3.609375 C 3.296875 -3.796875 3.085938 -3.890625 2.796875 -3.890625 C 2.460938 -3.890625 2.207031 -3.757812 2.03125 -3.5 C 1.851562 -3.25 1.765625 -2.882812 1.765625 -2.40625 L 1.765625 -0.4375 L 2.421875 -0.4375 L 2.421875 0 L 0.34375 0 L 0.34375 -0.4375 L 1.015625 -0.4375 L 1.015625 -3.890625 L 0.296875 -3.890625 L 0.296875 -4.328125 L 1.765625 -4.328125 L 1.765625 -3.546875 C 1.898438 -3.835938 2.070312 -4.054688 2.28125 -4.203125 C 2.5 -4.359375 2.742188 -4.4375 3.015625 -4.4375 C 3.359375 -4.4375 3.640625 -4.351562 3.859375 -4.1875 C 4.085938 -4.019531 4.238281 -3.785156 4.3125 -3.484375 Z"/></g><g id="glyph-0-4"><path d="M 2.953125 -4.328125 L 4.34375 -4.328125 L 4.34375 -0.4375 L 5.046875 -0.4375 L 5.046875 0 L 3.59375 0 L 3.59375 -0.765625 C 3.457031 -0.472656 3.28125 -0.25 3.0625 -0.09375 C 2.84375 0.0507812 2.585938 0.125 2.296875 0.125 C 1.816406 0.125 1.460938 -0.0078125 1.234375 -0.28125 C 1.015625 -0.5625 0.90625 -0.992188 0.90625 -1.578125 L 0.90625 -3.890625 L 0.21875 -3.890625 L 0.21875 -4.328125 L 1.65625 -4.328125 L 1.65625 -1.8125 C 1.65625 -1.28125 1.71875 -0.914062 1.84375 -0.71875 C 1.96875 -0.53125 2.195312 -0.4375 2.53125 -0.4375 C 2.875 -0.4375 3.132812 -0.5625 3.3125 -0.8125 C 3.5 -1.070312 3.59375 -1.441406 3.59375 -1.921875 L 3.59375 -3.890625 L 2.953125 -3.890625 Z"/></g><g id="glyph-0-5"><path d="M 1.703125 -0.4375 L 2.421875 -0.4375 L 2.421875 0 L 0.234375 0 L 0.234375 -0.4375 L 0.953125 -0.4375 L 0.953125 -5.890625 L 0.234375 -5.890625 L 0.234375 -6.328125 L 1.703125 -6.328125 Z"/></g><g id="glyph-0-6"><path d="M 3.3125 -1.359375 L 3.3125 -2.265625 L 2.34375 -2.265625 C 1.976562 -2.265625 1.703125 -2.1875 1.515625 -2.03125 C 1.335938 -1.875 1.25 -1.628906 1.25 -1.296875 C 1.25 -0.992188 1.335938 -0.753906 1.515625 -0.578125 C 1.703125 -0.398438 1.953125 -0.3125 2.265625 -0.3125 C 2.578125 -0.3125 2.828125 -0.40625 3.015625 -0.59375 C 3.210938 -0.789062 3.3125 -1.046875 3.3125 -1.359375 Z M 4.0625 -2.703125 L 4.0625 -0.4375 L 4.734375 -0.4375 L 4.734375 0 L 3.3125 0 L 3.3125 -0.46875 C 3.144531 -0.269531 2.953125 -0.117188 2.734375 -0.015625 C 2.523438 0.078125 2.273438 0.125 1.984375 0.125 C 1.503906 0.125 1.125 0 0.84375 -0.25 C 0.5625 -0.507812 0.421875 -0.859375 0.421875 -1.296875 C 0.421875 -1.742188 0.578125 -2.085938 0.890625 -2.328125 C 1.210938 -2.578125 1.671875 -2.703125 2.265625 -2.703125 L 3.3125 -2.703125 L 3.3125 -3 C 3.3125 -3.332031 3.210938 -3.585938 3.015625 -3.765625 C 2.816406 -3.941406 2.535156 -4.03125 2.171875 -4.03125 C 1.878906 -4.03125 1.644531 -3.960938 1.46875 -3.828125 C 1.289062 -3.691406 1.179688 -3.492188 1.140625 -3.234375 L 0.75 -3.234375 L 0.75 -4.109375 C 1.007812 -4.222656 1.257812 -4.304688 1.5 -4.359375 C 1.75 -4.410156 1.988281 -4.4375 2.21875 -4.4375 C 2.820312 -4.4375 3.28125 -4.285156 3.59375 -3.984375 C 3.90625 -3.691406 4.0625 -3.265625 4.0625 -2.703125 Z"/></g></g></defs><g fill="#34D399" fill-opacity="1"><use x="30" y="27.735" xlink:href="#glyph-0-0"/><use x="35" y="27.735" xlink:href="#glyph-0-1"/><use x="40" y="27.735" xlink:href="#glyph-0-2"/><use x="44" y="27.735" xlink:href="#glyph-0-3"/><use x="52" y="27.735" xlink:href="#glyph-0-4"/><use x="57" y="27.735" xlink:href="#glyph-0-5"/><use x="60" y="27.735" xlink:href="#glyph-0-6"/></g></svg>